<?xml version="1.0" standalone="no"?>
<!DOCTYPE svg PUBLIC "-//W3C//DTD SVG 1.1//EN" "http://www.w3.org/Graphics/SVG/1.1/DTD/svg11.dtd" >
<svg xmlns="http://www.w3.org/2000/svg">
<defs>
  <font id="goku-icon" horiz-adv-x="96">
    <font-face font-family="goku-icon"
      units-per-em="1001" ascent="1001"
      descent="0" />
    <missing-glyph horiz-adv-x="0" />
    <glyph glyph-name="node-web"
      unicode="&#xEA01;"
      horiz-adv-x="1001" d="M813.3125 500.5A93.84375 93.84375 0 0 1 1001 500.5A93.84375 93.84375 0 0 1 813.3125 500.5M0 500.5A93.84375 93.84375 0 0 1 187.6875 500.5A93.84375 93.84375 0 0 1 0 500.5M625.625 813.3125A93.84375 93.84375 0 0 1 813.3125 813.3125A93.84375 93.84375 0 0 1 625.625 813.3125M625.625 187.6875A93.84375 93.84375 0 0 1 813.3125 187.6875A93.84375 93.84375 0 0 1 625.625 187.6875M238.7802083333333 667.3333333333333L353.478125 782.03125H500.5C534.909375 782.03125 563.0625 810.184375 563.0625 844.59375V845.6364583333333C563.0625 880.0458333333333 534.909375 908.1989583333332 500.5 908.1989583333332H312.8125C282.5739583333334 908.1989583333332 258.5916666666667 886.3020833333334 253.378125 857.10625L152.2354166666667 755.9635416666666C128.253125 731.98125 128.253125 692.3583333333333 152.2354166666667 668.3760416666667C175.175 643.3510416666667 214.7979166666667 643.3510416666667 238.7802083333333 667.3333333333333zM312.8125 531.78125C278.403125 531.78125 250.25 503.628125 250.25 469.21875V469.21875C250.25 434.8093750000001 278.403125 406.65625 312.8125 406.65625H688.1875C722.5968750000001 406.65625 750.75 434.8093750000001 750.75 469.21875V470.2614583333333C750.75 504.6708333333333 722.5968750000001 532.8239583333334 688.1875 532.8239583333334H312.8125zM500.5 218.96875H348.2645833333334L238.7802083333333 328.453125C214.7979166666667 352.4354166666666 175.175 352.4354166666666 151.1927083333333 328.453125C127.2104166666667 304.4708333333333 127.2104166666667 264.8479166666667 151.1927083333333 240.8656249999999L254.4208333333333 137.6374999999998C262.7625 112.6124999999997 284.659375 93.8437499999998 312.8125 93.8437499999998H316.9833333333334C323.2395833333334 92.8010416666665 328.453125 92.8010416666665 334.709375 93.8437499999998H501.5427083333334C535.9520833333333 93.8437499999998 564.1052083333334 121.9968749999998 564.1052083333334 156.4062499999998V157.4489583333331C563.0625 191.8583333333334 534.909375 218.96875 500.5 218.96875z" />
    <glyph glyph-name="refresh"
      unicode="&#xEA02;"
      horiz-adv-x="1001" d="M500.5 959.2916666666666C247.121875 959.2916666666666 41.7083333333333 753.8885520833333 41.7083333333333 500.5S247.121875 41.7083333333333 500.5 41.7083333333333S959.2916666666669 247.1114479166667 959.2916666666669 500.5S753.8781250000001 959.2916666666666 500.5 959.2916666666666zM500.5 125.125C293.1887291666667 125.125 125.125 293.1887291666666 125.125 500.5S293.1887291666667 875.875 500.5 875.875S875.875 707.8112708333333 875.875 500.5S707.8112708333334 125.125 500.5 125.125zM340.6006770833333 490.0729166666666C340.9864791666667 490.0729166666666 341.37228125 490.1876145833334 341.7580833333334 490.20846875C342.1438854166667 490.1876145833334 342.5296875 490.0729166666666 342.9154895833334 490.0729166666666C349.44284375 490.0729166666666 356.0327604166668 492.1061979166666 361.6529583333334 496.3291666666667L410.31615625 532.8239583333334C424.1424687500001 543.1884791666666 426.9369270833334 562.8018229166667 416.5724062500001 576.6177083333333C410.5455520833334 584.6569895833334 401.4010000000001 588.8278229166667 392.0791875000001 588.9946562499999C414.6746770833334 635.4160312500001 459.3443020833334 675.1536458333333 523.1371979166668 675.1536458333333C610.1824895833334 675.1536458333333 658.5537291666668 612.2574791666666 667.8963958333334 549.924375C671.295625 527.1411979166667 692.4834583333335 511.5214270833333 715.3291979166668 514.8580937500001C738.1123750000002 518.2781770833334 753.8051354166668 539.50771875 750.3954791666667 562.28046875C733.0969479166667 677.8542604166666 639.639 758.5703125 523.147625 758.5703125C404.4874166666666 758.5703125 328.328 673.6104375 302.1664479166667 587.2637604166666C289.664375 591.6118541666667 275.30628125 587.7746875 266.9333333333334 576.6177083333332C256.5688125000001 562.8018229166667 259.3632708333334 543.1884791666666 273.1895833333334 532.8239583333332L321.8527812500001 496.3291666666666C327.4834062500001 492.1061979166666 334.0628958333333 490.0729166666666 340.6006770833333 490.0729166666666zM754.4203333333334 442.1083333333333L705.7571354166668 478.603125C699.7928437500001 483.0659166666666 692.7649895833334 484.9427916666666 685.8518333333334 484.6821145833333C678.9386770833333 484.9427916666666 671.9108229166666 483.0659166666666 665.9569583333333 478.603125L617.2833333333334 442.1083333333333C603.4674479166667 431.7438125 600.6521354166667 412.13046875 611.0166562500001 398.3145833333333C617.1686354166668 390.1188958333333 626.5530104166668 385.8020833333333 636.0625104166668 385.8020833333333C636.510875 385.8020833333333 636.9488125000001 385.8854999999999 637.3867500000001 385.9063541666666C619.0038020833334 345.4596979166666 582.0397916666668 310.8626354166666 519.9882187500001 306.1704479166665C445.6535416666668 300.5606770833332 385.9689166666668 340.8300729166665 360.5685416666668 413.9239270833332C352.9984791666668 435.6748229166665 329.2664375000001 447.1967499999999 307.4738333333334 439.6266874999999C285.7229375000001 432.056625 274.2114375000001 408.2933020833332 281.7710729166668 386.5319791666666C317.0250416666668 285.0868854166665 404.1641770833335 222.2637083333332 506.9335104166668 222.2637083333332C513.3148854166668 222.2637083333332 519.76925 222.4931041666665 526.2653229166667 222.9936041666664C625.9690937500001 230.5219583333331 701.23178125 293.6683749999999 726.3923333333333 387.2201666666664C729.4370416666667 386.29215625 732.5338854166667 385.8020833333333 735.6307291666667 385.8020833333333C745.1402291666667 385.8020833333333 754.5246041666667 390.1188958333334 760.6765833333334 398.3145833333333C771.0411041666667 412.13046875 768.2362187500001 431.7438125 754.4203333333334 442.1083333333333z" />
    <glyph glyph-name="reload"
      unicode="&#xEA03;"
      horiz-adv-x="1001" d="M959.2916666666669 834.1666666666666V583.9166666666666C959.2916666666669 560.9770833333332 940.5229166666668 542.2083333333333 917.5833333333334 542.2083333333333H667.3333333333334C644.39375 542.2083333333333 625.625 560.9770833333332 625.625 583.9166666666666S644.39375 625.625 667.3333333333334 625.625H808.0989583333334C751.7927083333333 680.8885416666667 706.95625 724.6822916666666 694.44375 736.1520833333334C662.1197916666666 768.4760416666667 625.625 792.4583333333333 583.9166666666666 809.1416666666667C544.2937499999999 825.825 501.5427083333333 833.1239583333333 458.7916666666666 833.1239583333333S373.2895833333334 824.7822916666667 333.6666666666667 809.1416666666667C291.9583333333333 792.4583333333333 255.4635416666666 767.4333333333334 223.1395833333333 736.1520833333334C190.8156249999999 703.828125 166.8333333333333 667.3333333333333 150.1499999999999 625.625C133.4666666666666 586.0020833333333 126.1677083333333 543.2510416666667 126.1677083333333 500.5S134.5093749999999 414.9979166666666 150.1499999999999 375.375C166.8333333333333 333.6666666666667 191.8583333333333 297.171875 223.1395833333333 264.8479166666667C255.4635416666666 232.5239583333335 291.9583333333333 208.5416666666666 333.6666666666667 191.8583333333334C373.2895833333333 175.1750000000001 416.0406249999999 167.8760416666667 458.7916666666666 167.8760416666667S544.2937499999999 176.2177083333334 583.9166666666666 191.8583333333334C625.625 208.5416666666666 662.1197916666666 233.5666666666667 694.44375 264.8479166666667C712.1697916666667 282.5739583333334 727.8104166666667 302.3854166666667 741.365625 324.2822916666668C753.8781250000001 345.1364583333334 765.3479166666666 367.0333333333334 772.646875 389.9729166666667C779.9458333333333 411.8697916666668 803.928125 423.3395833333334 825.8249999999999 414.9979166666667C847.7218749999998 407.6989583333333 859.1916666666666 383.7166666666667 850.85 361.8197916666667C840.4229166666667 332.6239583333334 826.8677083333333 305.5135416666666 811.2270833333333 279.4458333333332C794.54375 253.378125 774.7322916666667 228.3531249999999 752.8354166666668 205.4135416666667C713.2125000000001 165.790625 666.2906250000001 134.509375 615.1979166666667 113.6552083333334C590.1729166666668 103.228125 564.1052083333334 95.9291666666667 538.0375 90.7156249999999C511.9697916666667 85.5020833333333 485.9020833333334 83.4166666666666 458.7916666666667 83.4166666666666S405.6135416666667 85.5020833333333 379.5458333333334 90.7156249999999C353.478125 95.9291666666667 327.4104166666667 103.228125 302.3854166666667 113.6552083333334C250.25 134.509375 204.3708333333334 165.790625 164.7479166666667 205.4135416666667C124.0822916666667 245.0364583333333 92.8010416666667 291.9583333333333 71.946875 344.09375C61.5197916666667 369.11875 54.2208333333333 395.1864583333333 49.0072916666667 421.2541666666666C43.79375 447.321875 41.7083333333333 473.3895833333332 41.7083333333333 500.5S43.79375 553.6781249999999 49.0072916666667 579.7458333333334C54.2208333333333 605.8135416666667 61.5197916666667 631.8812499999999 71.946875 656.90625C92.8010416666667 709.0416666666666 124.0822916666667 754.9208333333333 163.7052083333334 794.54375S250.25 866.490625 302.3854166666667 887.3447916666667C327.4104166666667 897.771875 353.478125 905.0708333333334 379.5458333333334 910.284375C405.6135416666667 915.4979166666666 431.6812500000001 917.5833333333334 458.7916666666667 917.5833333333334S511.9697916666667 915.4979166666666 538.0375 910.284375C564.1052083333334 905.0708333333334 590.1729166666668 897.771875 615.1979166666667 887.3447916666667C667.3333333333334 866.490625 713.2125000000001 835.209375 752.8354166666668 795.5864583333333C765.3479166666667 783.0739583333334 814.3552083333335 735.109375 874.8322916666667 675.675V834.1666666666666C874.8322916666667 857.10625 893.6010416666668 875.875 916.540625 875.875S959.2916666666669 857.10625 959.2916666666669 834.1666666666666z" />
    <glyph glyph-name="repeat"
      unicode="&#xEA04;"
      horiz-adv-x="1001" d="M1001 834.1666666666666V583.9166666666666C1001 560.9770833333332 982.23125 542.2083333333333 959.2916666666669 542.2083333333333H709.0416666666667C686.1020833333333 542.2083333333333 667.3333333333334 560.9770833333332 667.3333333333334 583.9166666666666S686.1020833333333 625.625 709.0416666666667 625.625H849.8072916666667C793.5010416666667 679.8458333333333 749.7072916666667 723.6395833333333 737.1947916666668 736.1520833333334C737.1947916666668 736.1520833333334 737.1947916666668 736.1520833333334 737.1947916666668 736.1520833333334C704.8708333333335 768.4760416666667 668.3760416666668 792.4583333333333 626.6677083333334 809.1416666666667C587.0447916666667 825.825 544.29375 833.1239583333333 501.5427083333334 833.1239583333333S416.0406250000001 824.7822916666667 376.4177083333334 809.1416666666667C334.709375 792.4583333333333 298.2145833333334 767.4333333333334 265.890625 736.1520833333334C262.7625 733.0239583333333 260.6770833333334 730.9385416666667 257.5489583333334 727.8104166666667C230.4385416666667 699.6572916666667 209.584375 666.290625 194.9864583333333 630.8385416666666C192.9010416666667 624.5822916666666 189.7729166666667 618.3260416666667 187.6875 611.0270833333334C180.3885416666667 589.1302083333333 156.40625 577.6604166666666 134.509375 586.0020833333333C112.6125 593.3010416666667 101.1427083333333 617.2833333333333 108.4416666666667 639.1802083333334C111.5697916666667 648.5645833333333 114.6979166666667 656.90625 118.86875 666.2906250000001C127.2104166666667 685.059375 136.5947916666667 703.828125 148.0645833333333 721.5541666666668C161.6197916666667 743.4510416666667 178.303125 765.3479166666667 196.0291666666667 784.1166666666668C199.1572916666667 787.2447916666667 203.328125 791.4156250000001 206.45625 794.54375C246.0791666666667 834.1666666666667 293.0010416666667 865.4479166666667 344.09375 886.3020833333334C369.1187500000001 896.7291666666667 395.1864583333334 904.028125 421.2541666666667 909.2416666666668C447.3218750000001 915.4979166666666 473.3895833333333 917.5833333333334 500.5 917.5833333333334S553.678125 915.4979166666666 579.7458333333334 910.284375C605.8135416666668 905.0708333333334 631.88125 897.771875 656.90625 887.3447916666667C709.0416666666667 866.490625 754.9208333333335 835.209375 794.54375 795.5864583333333L795.5864583333333 794.54375C809.1416666666667 780.9885416666666 857.10625 734.0666666666666 917.5833333333334 675.675V834.1666666666666C917.5833333333334 857.10625 936.3520833333334 875.875 959.2916666666669 875.875S1001 857.10625 1001 834.1666666666666zM41.7083333333333 125.125C64.6479166666667 125.125 83.4166666666667 143.89375 83.4166666666667 166.8333333333333V325.3250000000001C143.89375 266.9333333333334 191.8583333333333 220.0114583333334 205.4135416666667 206.45625L206.45625 205.4135416666667C246.0791666666667 165.790625 293.0010416666667 134.509375 344.09375 113.6552083333334C369.1187500000001 103.228125 395.1864583333334 95.9291666666667 421.2541666666667 90.7156249999999C447.3218750000001 85.5020833333333 474.4322916666667 83.4166666666666 500.5 83.4166666666666C553.678125 83.4166666666666 607.8989583333333 93.84375 656.90625 113.6552083333334C709.0416666666667 134.509375 754.9208333333335 165.790625 794.54375 205.4135416666667C797.671875 208.5416666666666 801.8427083333335 212.7125 804.9708333333334 215.8406249999999C822.6968750000001 235.6520833333334 839.3802083333334 256.50625 852.9354166666667 278.403125C864.4052083333333 296.1291666666667 873.7895833333333 314.8979166666667 882.13125 333.6666666666667C886.3020833333334 342.0083333333332 889.4302083333333 351.3927083333333 892.5583333333333 360.7770833333333C899.8572916666667 382.6739583333333 888.3874999999999 405.6135416666666 866.490625 413.9552083333333C844.59375 421.2541666666667 820.6114583333333 409.784375 813.3125 388.9302083333334C811.2270833333333 382.6739583333333 808.0989583333334 376.4177083333333 806.0135416666667 369.11875C771.6041666666667 288.8302083333333 705.9135416666668 223.1395833333334 624.5822916666667 190.8156250000001C584.959375 174.1322916666668 542.2083333333334 166.8333333333335 499.4572916666667 166.8333333333335S413.9552083333334 175.1750000000001 374.3322916666667 190.8156250000001C332.6239583333334 207.4989583333334 296.1291666666667 232.5239583333335 263.8052083333334 263.8052083333335C263.8052083333334 263.8052083333335 263.8052083333334 263.8052083333335 263.8052083333334 263.8052083333335C251.2927083333334 276.3177083333335 206.45625 320.1114583333334 151.1927083333333 374.3322916666667H291.9583333333334C314.8979166666667 374.3322916666667 333.6666666666667 393.1010416666668 333.6666666666667 416.0406250000001S314.8979166666667 457.7489583333335 291.9583333333334 457.7489583333335H41.7083333333333C18.76875 457.7489583333335 0 438.9802083333335 0 416.0406250000001V165.790625C0 143.89375 18.76875 125.125 41.7083333333333 125.125z" />
    <glyph glyph-name="settings"
      unicode="&#xEA05;"
      horiz-adv-x="1001" d="M289.3515625 492.3251666666666V873.2682291666666C289.3515625 896.30165625 270.67665625 914.9765625 247.6432291666667 914.9765625S205.9348958333334 896.30165625 205.9348958333334 873.2682291666666V494.24375C161.91175 478.2068958333333 130.3385416666667 436.060625 130.3385416666667 386.5632604166666C130.3385416666667 336.0961770833334 163.1525729166667 293.2200104166666 208.5312395833333 277.93390625V148.5859375C208.5312395833333 125.5525104166666 227.2061458333333 106.8776041666666 250.2395729166667 106.8776041666666S291.94790625 125.5525104166666 291.94790625 148.5859375V282.0213229166666C331.8315 299.9976145833333 359.7135208333334 340.0480416666666 359.7135208333334 386.5632604166666C359.7135208333334 434.08990625 330.6428125000001 474.9536458333333 289.3515625 492.3251666666666zM245.02603125 417.8340833333333C262.2724270833334 417.8340833333333 276.2968541666667 403.7992291666666 276.2968541666667 386.5632604166666S262.2724270833334 355.2924374999999 245.02603125 355.2924374999999S213.7552083333334 369.3272916666666 213.7552083333334 386.5632604166666S227.7796354166667 417.8340833333333 245.02603125 417.8340833333333zM539.6015625 732.1480833333333V873.2682291666666C539.6015625 896.30165625 520.9266562500001 914.9765625 497.8932291666667 914.9765625S456.1848958333334 896.30165625 456.1848958333334 873.2682291666666V734.0666666666666C412.16175 718.0298124999999 380.5885416666667 675.8835416666666 380.5885416666667 626.3861770833333C380.5885416666667 576.8888125 412.16175 534.7425416666666 456.1848958333334 518.7056875000001V446.0914791666667V132.9453125C456.1848958333334 109.9118854166666 474.8598020833333 91.2369791666666 497.8932291666667 91.2369791666666S539.6015625 109.9118854166666 539.6015625 132.9453125V446.0914791666666V520.6242708333333C580.8928125 537.9957916666666 609.9635208333333 578.8491041666666 609.9635208333333 626.3861770833333C609.9635208333333 673.9128229166666 580.8928125 714.7765625 539.6015625 732.1480833333333zM495.2760312500001 657.6569999999999C512.5120000000001 657.6569999999999 526.5468541666668 643.6325729166667 526.5468541666668 626.3861770833333C526.5468541666668 609.1397812499999 512.5120000000001 595.1153541666666 495.2760312500001 595.1153541666666C478.0296354166667 595.1153541666666 464.0052083333334 609.1397812499999 464.0052083333334 626.3861770833333C464.0052083333334 643.6325729166666 478.0296354166667 657.6569999999999 495.2760312500001 657.6569999999999zM849.7864375000001 365.70909375C849.7864375000001 414.2158854166667 819.4644791666667 455.6948229166667 776.8177083333334 472.4198645833334V873.2682291666666C776.8177083333334 896.30165625 758.1428020833334 914.9765625 735.109375 914.9765625S693.4010416666667 896.30165625 693.4010416666667 873.2682291666666V472.4302916666667C650.74384375 455.70525 620.4114583333334 414.2158854166667 620.4114583333334 365.70909375C620.4114583333334 317.2023020833334 650.74384375 275.7233645833333 693.3906145833333 258.9878958333333V132.9453125C693.3906145833333 109.9118854166666 712.0655208333333 91.2369791666666 735.0989479166667 91.2369791666666S776.80728125 109.9118854166666 776.80728125 132.9453125V258.9878958333333C819.4540520833334 275.7233645833333 849.7864375000001 317.2023020833334 849.7864375000001 365.70909375zM735.0989479166667 334.4382708333333C717.8629791666666 334.4382708333333 703.828125 348.473125 703.828125 365.70909375S717.8629791666667 396.9799166666667 735.0989479166667 396.9799166666667S766.3697708333333 382.9450625 766.3697708333333 365.70909375S752.3349166666667 334.4382708333333 735.0989479166667 334.4382708333333z" />
    <glyph glyph-name="search"
      unicode="&#xEA06;"
      horiz-adv-x="1001" d="M946.7791666666666 112.6125L710.084375 349.3072916666667C761.1770833333334 413.9552083333333 792.4583333333334 495.2864583333333 792.4583333333334 583.9166666666666C792.4583333333334 791.415625 624.5822916666667 959.2916666666666 417.0833333333334 959.2916666666666C209.584375 959.2916666666666 41.7083333333333 791.415625 41.7083333333333 583.9166666666666S209.584375 208.5416666666666 417.0833333333334 208.5416666666666C505.7135416666667 208.5416666666666 587.0447916666667 238.7802083333334 651.6927083333334 290.915625L888.3875 54.2208333333333C896.7291666666667 45.8791666666667 907.15625 41.7083333333333 917.5833333333334 41.7083333333333C928.0104166666669 41.7083333333333 938.4375 45.8791666666667 946.7791666666666 54.2208333333333C963.4625 69.8614583333333 963.4625 96.971875 946.7791666666666 112.6125zM417.0833333333334 291.9583333333333C255.4635416666667 291.9583333333333 125.125 422.296875 125.125 583.9166666666666S255.4635416666667 875.875 417.0833333333334 875.875C578.703125 875.875 709.0416666666667 745.5364583333333 709.0416666666667 583.9166666666666S578.703125 291.9583333333333 417.0833333333334 291.9583333333333z" />
    <glyph glyph-name="arrow-down"
      unicode="&#xEA07;"
      horiz-adv-x="1001" d="M458.7916666666667 875.875V226.2677083333333L237.7375 446.2791666666666C221.0541666666667 462.9625 194.9864583333334 462.9625 178.303125 446.2791666666666C161.6197916666667 429.5958333333333 161.6197916666667 403.528125 178.303125 386.8447916666666L470.2614583333334 94.8864583333332C486.9447916666667 78.203125 513.0125 78.203125 529.6958333333334 94.8864583333332L821.6541666666668 386.8447916666666C829.9958333333333 396.2291666666667 834.1666666666667 406.65625 834.1666666666667 417.0833333333333C834.1666666666667 427.5104166666667 829.9958333333333 437.9375 821.6541666666667 446.2791666666666C804.9708333333334 462.9625 778.903125 462.9625 762.2197916666667 446.2791666666666L542.2083333333334 226.2677083333333V875.875C542.2083333333334 898.8145833333333 523.4395833333334 917.5833333333334 500.5 917.5833333333334S458.7916666666667 898.8145833333333 458.7916666666667 875.875z" />
    <glyph glyph-name="arrow-left"
      unicode="&#xEA08;"
      horiz-adv-x="1001" d="M875.875 542.2083333333333H226.2677083333334L447.3218750000001 763.2625C464.0052083333334 779.9458333333333 464.0052083333334 806.0135416666667 447.3218750000001 822.696875C430.6385416666667 839.3802083333333 404.5708333333334 839.3802083333333 387.8875 822.696875L95.9291666666666 530.7385416666666C79.2458333333333 514.0552083333332 79.2458333333333 487.9875 95.9291666666666 471.3041666666666L387.8875 179.3458333333332C396.2291666666667 171.0041666666667 406.65625 166.8333333333333 417.0833333333334 166.8333333333333C427.5104166666667 166.8333333333333 437.9375 171.0041666666667 446.2791666666667 179.3458333333333C462.9625 196.0291666666666 462.9625 222.096875 446.2791666666667 238.7802083333334L226.2677083333334 458.7916666666666H875.875C898.8145833333334 458.7916666666666 917.5833333333334 477.5604166666666 917.5833333333334 500.5C917.5833333333334 523.4395833333333 898.8145833333334 542.2083333333333 875.875 542.2083333333333z" />
    <glyph glyph-name="arrow-right"
      unicode="&#xEA09;"
      horiz-adv-x="1001" d="M125.125 458.7916666666666H774.7322916666667L554.7208333333334 237.7375C538.0375 221.0541666666667 538.0375 194.9864583333333 554.7208333333334 178.3031249999999C571.4041666666667 161.6197916666666 597.4718750000001 161.6197916666666 614.1552083333335 178.3031249999999L906.1135416666668 470.2614583333333C922.796875 486.9447916666666 922.796875 513.0124999999999 906.1135416666668 529.6958333333332L614.1552083333335 821.6541666666667C604.7708333333334 829.9958333333334 594.34375 834.1666666666666 583.9166666666667 834.1666666666666C573.4895833333334 834.1666666666666 563.0625 829.9958333333334 554.7208333333334 821.6541666666667C538.0375 804.9708333333333 538.0375 778.903125 554.7208333333334 762.2197916666667L774.7322916666667 542.2083333333333H125.125C102.1854166666667 542.2083333333333 83.4166666666667 523.4395833333333 83.4166666666667 500.5S102.1854166666667 458.7916666666666 125.125 458.7916666666666z" />
    <glyph glyph-name="arrow-up"
      unicode="&#xEA0A;"
      horiz-adv-x="1001" d="M542.2083333333334 125.125V774.7322916666667L763.2625 553.6781249999999C779.9458333333333 536.9947916666666 806.0135416666667 536.9947916666666 822.6968750000001 553.6781249999999C839.3802083333334 570.3614583333333 839.3802083333334 596.4291666666667 822.6968750000001 613.1125L530.7385416666667 905.0708333333334C514.0552083333334 921.7541666666668 487.9875000000001 921.7541666666668 471.3041666666667 905.0708333333334L179.3458333333334 613.1125C171.0041666666667 604.7708333333333 166.8333333333334 594.34375 166.8333333333334 583.9166666666666C166.8333333333334 573.4895833333333 171.0041666666667 563.0625 179.3458333333333 554.7208333333333C196.0291666666667 538.0374999999999 222.096875 538.0374999999999 238.7802083333333 554.7208333333333L458.7916666666667 774.7322916666667V125.125C458.7916666666667 102.1854166666666 477.5604166666666 83.4166666666666 500.5 83.4166666666666S542.2083333333334 102.1854166666666 542.2083333333334 125.125z" />
    <glyph glyph-name="upload"
      unicode="&#xEA0B;"
      horiz-adv-x="1001" d="M83.4166666666667 291.9583333333333V875.875C83.4166666666667 944.69375 139.7229166666667 1001 208.5416666666667 1001H792.4583333333334C861.2770833333333 1001 917.5833333333334 944.69375 917.5833333333334 875.875V291.9583333333333C917.5833333333334 223.1395833333334 861.2770833333333 166.8333333333333 792.4583333333334 166.8333333333333H625.625V250.25H792.4583333333334C815.3979166666668 250.25 834.1666666666667 269.01875 834.1666666666667 291.9583333333333V875.875C834.1666666666667 898.8145833333333 815.3979166666668 917.5833333333334 792.4583333333334 917.5833333333334H208.5416666666667C185.6020833333334 917.5833333333334 166.8333333333334 898.8145833333333 166.8333333333334 875.875V291.9583333333333C166.8333333333334 269.01875 185.6020833333334 250.25 208.5416666666667 250.25H375.375V166.8333333333333H208.5416666666667C139.7229166666667 166.8333333333333 83.4166666666667 223.1395833333334 83.4166666666667 291.9583333333333zM304.4708333333334 513.0125C321.1541666666667 496.3291666666667 347.221875 496.3291666666667 363.9052083333334 513.0125L459.834375 608.9416666666667V41.7083333333333V41.7083333333333C459.834375 18.76875 478.6031249999999 0 501.5427083333333 0S543.2510416666667 18.76875 543.2510416666667 41.7083333333333V607.8989583333332L639.1802083333333 511.9697916666666C655.8635416666667 495.2864583333333 681.93125 495.2864583333333 698.6145833333334 511.9697916666666C715.2979166666667 528.6531249999999 715.2979166666667 554.7208333333333 698.6145833333334 571.4041666666667L531.78125 738.2375C522.396875 746.5791666666667 511.9697916666667 750.75 500.5 750.75S478.603125 746.5791666666667 471.3041666666667 738.2375L304.4708333333334 571.4041666666667C287.7875 555.7635416666667 287.7875 528.653125 304.4708333333334 513.0125z" />
    <glyph glyph-name="align-center"
      unicode="&#xEA0C;"
      horiz-adv-x="1001" d="M125.125 709.0416666666666H875.875C898.8145833333334 709.0416666666666 917.5833333333334 727.8104166666667 917.5833333333334 750.75S898.8145833333334 792.4583333333333 875.875 792.4583333333333H125.125C102.1854166666667 792.4583333333333 83.4166666666667 773.6895833333333 83.4166666666667 750.75S102.1854166666667 709.0416666666666 125.125 709.0416666666666zM208.5416666666667 625.625C185.6020833333334 625.625 166.8333333333334 606.85625 166.8333333333334 583.9166666666666S185.6020833333334 542.2083333333333 208.5416666666667 542.2083333333333H792.4583333333334C815.3979166666668 542.2083333333333 834.1666666666667 560.9770833333332 834.1666666666667 583.9166666666666S815.3979166666668 625.625 792.4583333333334 625.625H208.5416666666667zM875.875 458.7916666666666H125.125C102.1854166666667 458.7916666666666 83.4166666666667 440.0229166666667 83.4166666666667 417.0833333333333S102.1854166666667 375.375 125.125 375.375H875.875C898.8145833333334 375.375 917.5833333333334 394.14375 917.5833333333334 417.0833333333333S898.8145833333334 458.7916666666666 875.875 458.7916666666666zM792.4583333333334 291.9583333333333H208.5416666666667C185.6020833333334 291.9583333333333 166.8333333333334 273.1895833333333 166.8333333333334 250.25S185.6020833333334 208.5416666666666 208.5416666666667 208.5416666666666H792.4583333333334C815.3979166666668 208.5416666666666 834.1666666666667 227.3104166666666 834.1666666666667 250.25S815.3979166666668 291.9583333333333 792.4583333333334 291.9583333333333z" />
    <glyph glyph-name="align-justify"
      unicode="&#xEA0D;"
      horiz-adv-x="1001" d="M125.125 709.0416666666666H875.875C898.8145833333334 709.0416666666666 917.5833333333334 727.8104166666667 917.5833333333334 750.75S898.8145833333334 792.4583333333333 875.875 792.4583333333333H125.125C102.1854166666667 792.4583333333333 83.4166666666667 773.6895833333333 83.4166666666667 750.75S102.1854166666667 709.0416666666666 125.125 709.0416666666666zM875.875 625.625H125.125C102.1854166666667 625.625 83.4166666666667 606.85625 83.4166666666667 583.9166666666666S102.1854166666667 542.2083333333333 125.125 542.2083333333333H875.875C898.8145833333334 542.2083333333333 917.5833333333334 560.9770833333332 917.5833333333334 583.9166666666666S898.8145833333334 625.625 875.875 625.625zM875.875 458.7916666666666H125.125C102.1854166666667 458.7916666666666 83.4166666666667 440.0229166666667 83.4166666666667 417.0833333333333S102.1854166666667 375.375 125.125 375.375H875.875C898.8145833333334 375.375 917.5833333333334 394.14375 917.5833333333334 417.0833333333333S898.8145833333334 458.7916666666666 875.875 458.7916666666666zM875.875 291.9583333333333H125.125C102.1854166666667 291.9583333333333 83.4166666666667 273.1895833333333 83.4166666666667 250.25S102.1854166666667 208.5416666666666 125.125 208.5416666666666H875.875C898.8145833333334 208.5416666666666 917.5833333333334 227.3104166666666 917.5833333333334 250.25S898.8145833333334 291.9583333333333 875.875 291.9583333333333z" />
    <glyph glyph-name="align-left"
      unicode="&#xEA0E;"
      horiz-adv-x="1001" d="M125.125 709.0416666666666H875.875C898.8145833333334 709.0416666666666 917.5833333333334 727.8104166666667 917.5833333333334 750.75S898.8145833333334 792.4583333333333 875.875 792.4583333333333H125.125C102.1854166666667 792.4583333333333 83.4166666666667 773.6895833333333 83.4166666666667 750.75S102.1854166666667 709.0416666666666 125.125 709.0416666666666zM125.125 542.2083333333333H709.0416666666667C731.98125 542.2083333333333 750.75 560.9770833333332 750.75 583.9166666666666S731.98125 625.625 709.0416666666667 625.625H125.125C102.1854166666667 625.625 83.4166666666667 606.85625 83.4166666666667 583.9166666666666S102.1854166666667 542.2083333333333 125.125 542.2083333333333zM875.875 458.7916666666666H125.125C102.1854166666667 458.7916666666666 83.4166666666667 440.0229166666667 83.4166666666667 417.0833333333333S102.1854166666667 375.375 125.125 375.375H875.875C898.8145833333334 375.375 917.5833333333334 394.14375 917.5833333333334 417.0833333333333S898.8145833333334 458.7916666666666 875.875 458.7916666666666zM709.0416666666667 291.9583333333333H125.125C102.1854166666667 291.9583333333333 83.4166666666667 273.1895833333333 83.4166666666667 250.25S102.1854166666667 208.5416666666666 125.125 208.5416666666666H709.0416666666667C731.98125 208.5416666666666 750.75 227.3104166666666 750.75 250.25S731.98125 291.9583333333333 709.0416666666667 291.9583333333333z" />
    <glyph glyph-name="align-right"
      unicode="&#xEA0F;"
      horiz-adv-x="1001" d="M917.5833333333334 750.75C917.5833333333334 773.6895833333333 898.8145833333334 792.4583333333333 875.875 792.4583333333333H125.125C102.1854166666667 792.4583333333333 83.4166666666667 773.6895833333333 83.4166666666667 750.75S102.1854166666667 709.0416666666666 125.125 709.0416666666666H875.875C898.8145833333334 709.0416666666666 917.5833333333334 727.8104166666667 917.5833333333334 750.75zM917.5833333333334 583.9166666666666C917.5833333333334 606.85625 898.8145833333334 625.625 875.875 625.625H291.9583333333334C269.01875 625.625 250.25 606.85625 250.25 583.9166666666666S269.01875 542.2083333333333 291.9583333333334 542.2083333333333H875.875C898.8145833333334 542.2083333333333 917.5833333333334 560.9770833333332 917.5833333333334 583.9166666666666zM83.4166666666667 417.0833333333333C83.4166666666667 394.14375 102.1854166666667 375.375 125.125 375.375H875.875C898.8145833333334 375.375 917.5833333333334 394.14375 917.5833333333334 417.0833333333333S898.8145833333334 458.7916666666666 875.875 458.7916666666666H125.125C102.1854166666667 458.7916666666666 83.4166666666667 440.0229166666667 83.4166666666667 417.0833333333333zM250.25 250.25C250.25 227.3104166666666 269.01875 208.5416666666666 291.9583333333334 208.5416666666666H875.875C898.8145833333334 208.5416666666666 917.5833333333334 227.3104166666666 917.5833333333334 250.25S898.8145833333334 291.9583333333333 875.875 291.9583333333333H291.9583333333334C269.01875 291.9583333333333 250.25 273.1895833333333 250.25 250.25z" />
    <glyph glyph-name="avatar"
      unicode="&#xEA10;"
      horiz-adv-x="1001" d="M514.0552083333333 491.115625C622.496875 491.115625 711.1270833333333 589.1302083333333 711.1270833333333 709.0416666666666S622.496875 928.0104166666666 514.0552083333333 928.0104166666666C405.6135416666667 928.0104166666666 316.9833333333334 829.9958333333334 316.9833333333334 709.0416666666666S405.6135416666667 491.115625 514.0552083333333 491.115625zM514.0552083333333 870.6614583333333C591.215625 870.6614583333333 653.778125 798.7145833333334 653.778125 710.084375S591.215625 549.5072916666667 514.0552083333333 549.5072916666667S374.3322916666667 620.4114583333333 374.3322916666667 709.0416666666666S436.8947916666667 870.6614583333333 514.0552083333333 870.6614583333333zM631.88125 450.45H396.2291666666667C265.890625 450.45 160.5770833333333 345.1364583333333 160.5770833333333 214.7979166666666C160.5770833333333 187.6875 164.7479166666667 161.6197916666666 174.1322916666667 136.5947916666666L179.3458333333333 121.9968749999998L193.94375 117.8260416666665C299.2572916666666 88.6302083333332 412.9125 74.0322916666664 529.6958333333333 74.0322916666664C633.9666666666667 74.0322916666664 735.109375 85.502083333333 831.0385416666666 109.4843749999998L845.6364583333333 112.6124999999997L850.85 126.1677083333331C862.3197916666666 154.3208333333331 868.5760416666667 183.5166666666664 868.5760416666667 214.7979166666664C867.5333333333334 344.09375 761.1770833333334 450.45 631.88125 450.45zM801.8427083333335 161.6197916666666C715.2979166666668 141.8083333333333 623.5395833333334 131.3812499999999 529.6958333333334 131.3812499999999C423.3395833333335 131.3812499999999 321.1541666666668 143.89375 224.1822916666667 168.9187499999998C220.0114583333334 183.5166666666666 217.9260416666667 199.1572916666666 217.9260416666667 213.7552083333332C217.9260416666667 260.6770833333332 236.6947916666667 305.5135416666665 270.0614583333334 339.9229166666666C303.428125 373.2895833333332 348.2645833333334 392.0583333333332 396.2291666666667 392.0583333333332H631.88125C678.803125 392.0583333333332 723.6395833333335 373.2895833333332 758.0489583333334 339.9229166666666C791.4156250000001 306.5562499999999 810.184375 261.7197916666666 810.184375 213.7552083333332C810.184375 196.0291666666666 807.0562500000001 178.3031249999999 801.8427083333335 161.6197916666666z" />
    <glyph glyph-name="caret-down"
      unicode="&#xEA11;"
      horiz-adv-x="1001" d="M500.5 331.0598958333333L858.0655416666667 693.0152395833334L142.9344583333334 693.0152395833334z" />
    <glyph glyph-name="caret-left"
      unicode="&#xEA12;"
      horiz-adv-x="1001" d="M319.5275416666667 512.0323541666667L681.4724583333333 154.4668124999998L681.4724583333333 869.5978958333333z" />
    <glyph glyph-name="caret-right"
      unicode="&#xEA13;"
      horiz-adv-x="1001" d="M392.517125 859.1708125L392.517125 144.0397291666666L754.4620416666667 501.6052708333333z" />
    <glyph glyph-name="caret-up"
      unicode="&#xEA14;"
      horiz-adv-x="1001" d="M497.02778125 712.5660208333334L139.4622395833334 350.6106770833333L854.5933229166667 350.6106770833333z" />
    <glyph glyph-name="check"
      unicode="&#xEA15;"
      horiz-adv-x="1001" d="M375.375 208.5416666666666C363.9052083333334 208.5416666666666 353.478125 212.7125 346.1791666666668 221.0541666666667L95.9291666666667 471.3041666666667C79.2458333333334 487.9875000000001 79.2458333333334 514.0552083333333 95.9291666666667 530.7385416666667C112.6125 547.421875 138.6802083333334 547.421875 155.3635416666667 530.7385416666667L375.375 309.6843750000001L846.6791666666668 780.9885416666667C863.3625000000001 797.671875 889.4302083333333 797.671875 906.1135416666668 780.9885416666667C922.796875 764.3052083333333 922.796875 738.2375 906.1135416666668 721.5541666666668L405.6135416666668 221.0541666666667C397.271875 212.7125 386.8447916666667 208.5416666666666 375.375 208.5416666666666z" />
    <glyph glyph-name="checkbox-ed"
      unicode="&#xEA16;"
      horiz-adv-x="1001" d="M738.51903125 928.0104166666666H272.9080520833333C168.41825 928.0104166666666 83.4166666666667 843.0088333333333 83.4166666666667 738.51903125V267.6945104166666C83.4166666666667 163.2047083333333 168.41825 78.203125 272.9080520833333 78.203125H738.51903125C843.0088333333333 78.203125 928.0104166666669 163.2047083333333 928.0104166666669 267.6945104166666V738.51903125C928.0104166666669 843.0088333333333 843.0088333333333 928.0104166666666 738.51903125 928.0104166666666zM757.0792395833333 571.1434895833333L507.2880312500001 321.3418541666666C506.72496875 320.7787916666666 506.0680625000001 320.3929895833334 505.4945729166668 319.8716354166666C504.5769895833334 319.0478958333333 503.6385520833335 318.2867187499999 502.6688333333334 317.5568229166667C501.1464791666667 316.4202708333334 499.5719895833334 315.4192708333333 497.9349375000001 314.5121145833333C496.9547916666667 313.9699062499999 495.9955000000001 313.4172708333332 494.9840729166667 312.9584791666666C493.0967708333334 312.1034583333333 491.1573333333334 311.46740625 489.1761875 310.9043437499999C488.3107395833334 310.6645208333333 487.4870000000001 310.3308541666666 486.611125 310.1431666666666C483.7228229166667 309.52796875 480.8032395833333 309.1421666666667 477.8628020833333 309.1421666666667C477.8523750000001 309.1421666666667 477.8523750000001 309.1421666666667 477.8419479166667 309.1421666666667S477.8315208333333 309.1421666666667 477.8315208333333 309.1421666666667C475.3915833333334 309.1421666666667 472.94121875 309.4132708333332 470.5221354166667 309.8512083333333C469.7818125000001 309.9867604166666 469.0519166666667 310.2057291666667 468.3220208333334 310.3829895833333C466.6536875000001 310.77921875 465.0166354166667 311.2380104166665 463.3900104166667 311.8427812499999C462.5245625000001 312.1660208333333 461.6799687500001 312.5413958333333 460.8249479166667 312.9167708333332C459.3755833333333 313.5736770833332 457.9575 314.3244270833333 456.5706979166667 315.1585937499999C455.73653125 315.6590937499999 454.9023645833334 316.1491666666666 454.0890520833333 316.72265625C453.70325 316.9937604166666 453.2757395833333 317.1814479166666 452.9003645833334 317.4734062500001L286.3381354166667 442.3794375C267.9447604166667 456.17446875 264.2118645833334 482.2734583333333 278.0068958333333 500.6668333333334C291.8123541666667 519.0706354166666 317.9009166666667 522.7826770833334 336.2942916666667 508.9980729166667L473.94221875 405.7595208333334L698.2079270833334 630.0252291666666C714.4741770833334 646.2810520833332 740.8234166666667 646.2810520833332 757.0896666666667 630.0252291666666C773.3454895833333 613.7589791666667 773.3454895833333 587.4097395833332 757.0792395833333 571.1434895833333z" />
    <glyph glyph-name="checkbox"
      unicode="&#xEA17;"
      horiz-adv-x="1001" d="M738.51903125 928.0104166666666H272.9080520833333C168.41825 928.0104166666666 83.4166666666667 843.0088333333333 83.4166666666667 738.51903125V267.6945104166666C83.4166666666667 163.2047083333333 168.41825 78.203125 272.9080520833333 78.203125H738.51903125C843.0088333333333 78.203125 928.0104166666669 163.2047083333333 928.0104166666669 267.6945104166666V738.51903125C928.0104166666669 843.0088333333333 843.0088333333333 928.0104166666666 738.51903125 928.0104166666666zM844.59375 718.6033020833333V690.7942708333333V607.3776041666666V411.8697916666667V267.6945104166666C844.59375 209.1985729166667 797.01496875 161.6197916666666 738.51903125 161.6197916666666H272.9080520833333C214.4121145833333 161.6197916666666 166.8333333333334 209.1985729166667 166.8333333333334 267.6945104166666V411.8697916666667H165.9678854166667V718.6033020833333H166.8333333333334V738.5294583333334C166.8333333333334 797.01496875 214.4121145833333 844.59375 272.9080520833333 844.59375H738.51903125C797.01496875 844.59375 844.59375 797.01496875 844.59375 738.51903125V718.6033020833333z" />
    <glyph glyph-name="circle-add"
      unicode="&#xEA18;"
      horiz-adv-x="1001" d="M500.5 959.2916666666666C247.121875 959.2916666666666 41.7083333333333 753.878125 41.7083333333333 500.5S247.121875 41.7083333333333 500.5 41.7083333333333S959.2916666666669 247.121875 959.2916666666669 500.5S753.8781250000001 959.2916666666666 500.5 959.2916666666666zM500.5 125.125C293.0010416666667 125.125 125.125 293.0010416666666 125.125 500.5S293.0010416666667 875.875 500.5 875.875S875.875 707.9989583333333 875.875 500.5S707.9989583333335 125.125 500.5 125.125zM667.3333333333334 542.2083333333333H542.2083333333334V667.3333333333333C542.2083333333334 690.2729166666666 523.4395833333334 709.0416666666666 500.5 709.0416666666666S458.7916666666667 690.2729166666666 458.7916666666667 667.3333333333333V542.2083333333333H333.6666666666667C310.7270833333334 542.2083333333333 291.9583333333334 523.4395833333333 291.9583333333334 500.5S310.7270833333334 458.7916666666666 333.6666666666667 458.7916666666666H458.7916666666667V333.6666666666667C458.7916666666667 310.7270833333332 477.5604166666666 291.9583333333333 500.5 291.9583333333333S542.2083333333334 310.7270833333332 542.2083333333334 333.6666666666667V458.7916666666666H667.3333333333334C690.2729166666668 458.7916666666666 709.0416666666667 477.5604166666666 709.0416666666667 500.5S690.2729166666668 542.2083333333333 667.3333333333334 542.2083333333333z" />
    <glyph glyph-name="circle-checked"
      unicode="&#xEA19;"
      horiz-adv-x="1001" d="M500.5 959.2916666666666C247.121875 959.2916666666666 41.7083333333333 753.878125 41.7083333333333 500.5S247.121875 41.7083333333333 500.5 41.7083333333333S959.2916666666669 247.121875 959.2916666666669 500.5S753.8781250000001 959.2916666666666 500.5 959.2916666666666zM500.5 125.125C293.0010416666667 125.125 125.125 293.0010416666666 125.125 500.5S293.0010416666667 875.875 500.5 875.875S875.875 707.9989583333333 875.875 500.5S707.9989583333335 125.125 500.5 125.125zM611.0270833333334 613.1125L464.0052083333334 466.090625L404.5708333333334 525.5250000000001C387.8875 542.2083333333334 361.8197916666666 542.2083333333334 345.1364583333333 525.5250000000001C328.453125 508.8416666666667 328.453125 482.7739583333333 345.1364583333333 466.090625L433.7666666666667 377.4604166666667C450.45 360.7770833333333 476.5177083333333 360.7770833333333 493.2010416666666 377.4604166666667L670.4614583333333 554.7208333333333C687.1447916666666 571.4041666666667 687.1447916666666 597.471875 670.4614583333333 614.1552083333333C653.778125 629.7958333333333 627.7104166666668 629.7958333333333 611.0270833333334 613.1125z" />
    <glyph glyph-name="circle-checked-reverse"
      unicode="&#xEA1A;"
      horiz-adv-x="1001" d="M500.5 959.2916666666666C247.121875 959.2916666666666 41.7083333333333 753.8885520833333 41.7083333333333 500.5C41.7083333333333 247.1114479166667 247.121875 41.7083333333333 500.5 41.7083333333333S959.2916666666669 247.1114479166667 959.2916666666669 500.5C959.2916666666669 753.8885520833333 753.8781250000001 959.2916666666666 500.5 959.2916666666666zM670.2841979166667 554.4393020833334L493.3261666666667 377.4916979166667C477.0390625 361.2150208333334 450.6168333333333 361.2150208333334 434.3401562500001 377.4916979166667L345.87678125 465.9237916666667C329.5896770833334 482.2213229166667 329.5896770833334 508.6435520833334 345.87678125 524.9202291666667C362.1743125000001 541.2073333333333 388.5756875 541.2073333333333 404.8627916666668 524.9202291666667L463.838375 465.9446458333334L611.3086145833333 613.4253125C627.5957187500001 629.6915624999999 654.0179479166667 629.6915624999999 670.2946250000001 613.4357395833333C686.6025833333333 597.12778125 686.5713020833333 570.7368333333333 670.2841979166667 554.4393020833334z" />
    <glyph glyph-name="circle-cross"
      unicode="&#xEA1B;"
      horiz-adv-x="1001" d="M500.5 959.2916666666666C247.121875 959.2916666666666 41.7083333333333 753.878125 41.7083333333333 500.5S247.121875 41.7083333333333 500.5 41.7083333333333S959.2916666666669 247.121875 959.2916666666669 500.5S753.8781250000001 959.2916666666666 500.5 959.2916666666666zM500.5 125.125C293.0010416666667 125.125 125.125 293.0010416666666 125.125 500.5S293.0010416666667 875.875 500.5 875.875S875.875 707.9989583333333 875.875 500.5S707.9989583333335 125.125 500.5 125.125zM647.521875 647.521875C630.8385416666667 664.2052083333333 604.7708333333334 664.2052083333333 588.0875 647.521875L500.5 559.934375L411.8697916666667 648.5645833333333C395.1864583333334 665.2479166666667 369.1187500000001 665.2479166666667 352.4354166666667 648.5645833333333C335.7520833333333 631.8812499999999 335.7520833333333 605.8135416666667 352.4354166666667 589.1302083333333L441.065625 500.5L352.4354166666667 411.8697916666667C335.7520833333333 395.1864583333333 335.7520833333333 369.11875 352.4354166666667 352.4354166666666C369.1187500000001 335.7520833333333 395.1864583333334 335.7520833333333 411.8697916666667 352.4354166666666L500.5 441.065625L589.1302083333334 352.4354166666666C605.8135416666668 335.7520833333333 631.88125 335.7520833333333 648.5645833333334 352.4354166666666C665.2479166666667 369.11875 665.2479166666667 395.1864583333333 648.5645833333334 411.8697916666667L559.934375 500.5L648.5645833333334 589.1302083333333C664.2052083333334 604.7708333333333 664.2052083333334 631.8812499999999 647.521875 647.521875z" />
    <glyph glyph-name="circle-fill-small"
      unicode="&#xEA1C;"
      horiz-adv-x="1001" d="M488.76953125 337.1388854166667C387.9187812500001 337.1388854166667 305.8576354166667 419.1896041666667 305.8576354166667 520.05078125S387.9083541666667 702.9626770833333 488.76953125 702.9626770833333S671.6814270833333 620.9119583333334 671.6814270833333 520.05078125S589.62028125 337.1388854166667 488.76953125 337.1388854166667z" />
    <glyph glyph-name="circle-fill"
      unicode="&#xEA1D;"
      horiz-adv-x="1001" d="M500.5 83.4166666666666C270.5202500000001 83.4166666666666 83.4166666666667 270.5202500000001 83.4166666666667 500.5C83.4166666666667 730.47975 270.5202500000001 917.5833333333334 500.5 917.5833333333334C730.47975 917.5833333333334 917.5833333333334 730.47975 917.5833333333334 500.5C917.5833333333334 270.5202500000001 730.47975 83.4166666666666 500.5 83.4166666666666z" />
    <glyph glyph-name="circle-i"
      unicode="&#xEA1E;"
      horiz-adv-x="1001" d="M500.5 959.2916666666666C247.121875 959.2916666666666 41.7083333333333 753.8885520833333 41.7083333333333 500.5S247.121875 41.7083333333333 500.5 41.7083333333333S959.2916666666669 247.1114479166667 959.2916666666669 500.5S753.8781250000001 959.2916666666666 500.5 959.2916666666666zM500.5 125.125C293.1887291666667 125.125 125.125 293.1887291666666 125.125 500.5S293.1887291666667 875.875 500.5 875.875S875.875 707.8112708333333 875.875 500.5S707.8112708333334 125.125 500.5 125.125zM509.1857604166667 641.265625C486.1523333333333 641.265625 467.4774270833333 622.59071875 467.4774270833333 599.5572916666666V219.2711354166666C467.4774270833333 196.2377083333332 486.1523333333333 177.5628020833333 509.1857604166667 177.5628020833333S550.89409375 196.2377083333332 550.89409375 219.2711354166666V599.5572916666666C550.89409375 622.59071875 532.2191875000001 641.265625 509.1857604166667 641.265625zM464.0052083333334 720.3341979166667A44.315104166666664 44.315104166666664 0 0 1 552.6354166666667 720.3341979166667A44.315104166666664 44.315104166666664 0 0 1 464.0052083333334 720.3341979166667" />
    <glyph glyph-name="circle-mark"
      unicode="&#xEA1F;"
      horiz-adv-x="1001" d="M500.5 41.7083333333333C753.8781250000001 41.7083333333333 959.2916666666669 247.1114479166667 959.2916666666669 500.5S753.8781250000001 959.2916666666666 500.5 959.2916666666666S41.7083333333333 753.8885520833333 41.7083333333333 500.5S247.121875 41.7083333333333 500.5 41.7083333333333zM500.5 875.875C707.8112708333334 875.875 875.875 707.8112708333333 875.875 500.5S707.8112708333334 125.125 500.5 125.125S125.125 293.1887291666666 125.125 500.5S293.1887291666667 875.875 500.5 875.875zM491.8142395833334 338.8802083333333C468.7808125 338.8802083333333 450.1059062500001 357.5551145833333 450.1059062500001 380.5885416666667V760.8746979166667C450.1059062500001 783.9081249999999 468.7808125 802.58303125 491.8142395833334 802.58303125S533.5225729166667 783.9081249999999 533.5225729166667 760.8746979166667V380.5885416666667C533.5225729166667 357.5551145833333 514.8476666666667 338.8802083333333 491.8142395833334 338.8802083333333zM448.3645833333334 259.8116354166666A44.315104166666664 44.315104166666664 0 0 1 536.9947916666667 259.8116354166666A44.315104166666664 44.315104166666664 0 0 1 448.3645833333334 259.8116354166666" />
    <glyph glyph-name="circle-mark-reverse"
      unicode="&#xEA20;"
      horiz-adv-x="1001" d="M500.5 959.2916666666666C247.121875 959.2916666666666 41.7083333333333 753.878125 41.7083333333333 500.5S247.121875 41.7083333333333 500.5 41.7083333333333S959.2916666666669 247.121875 959.2916666666669 500.5S753.8781250000001 959.2916666666666 500.5 959.2916666666666zM450.45 761.1770833333333C450.45 784.1166666666667 469.21875 802.8854166666666 492.1583333333334 802.8854166666666S533.8666666666667 784.1166666666667 533.8666666666667 761.1770833333333V380.5885416666667C533.8666666666667 357.6489583333332 515.0979166666667 338.8802083333333 492.1583333333334 338.8802083333333S450.45 357.6489583333332 450.45 380.5885416666667V761.1770833333333zM492.1583333333334 215.8406249999999C468.1760416666668 215.8406249999999 448.3645833333334 235.6520833333334 448.3645833333334 259.634375S468.1760416666667 303.428125 492.1583333333334 303.428125S535.9520833333335 283.6166666666667 535.9520833333335 259.634375S517.1833333333334 215.8406249999999 492.1583333333334 215.8406249999999z" />
    <glyph glyph-name="circle-minus"
      unicode="&#xEA21;"
      horiz-adv-x="1001" d="M500.5 959.2916666666666C247.121875 959.2916666666666 41.7083333333333 753.878125 41.7083333333333 500.5S247.121875 41.7083333333333 500.5 41.7083333333333S959.2916666666669 247.121875 959.2916666666669 500.5S753.8781250000001 959.2916666666666 500.5 959.2916666666666zM500.5 125.125C293.0010416666667 125.125 125.125 293.0010416666666 125.125 500.5S293.0010416666667 875.875 500.5 875.875S875.875 707.9989583333333 875.875 500.5S707.9989583333335 125.125 500.5 125.125zM667.3333333333334 542.2083333333333H333.6666666666667C310.7270833333334 542.2083333333333 291.9583333333334 523.4395833333333 291.9583333333334 500.5S310.7270833333334 458.7916666666666 333.6666666666667 458.7916666666666H667.3333333333334C690.2729166666668 458.7916666666666 709.0416666666667 477.5604166666666 709.0416666666667 500.5S690.2729166666668 542.2083333333333 667.3333333333334 542.2083333333333z" />
    <glyph glyph-name="circle-play"
      unicode="&#xEA22;"
      horiz-adv-x="1001" d="M542.2083333333334 959.2916666666666C288.8302083333334 959.2916666666666 83.4166666666667 753.8885520833333 83.4166666666667 500.5S288.8302083333334 41.7083333333333 542.2083333333334 41.7083333333333S1001 247.1114479166667 1001 500.5S795.5864583333333 959.2916666666666 542.2083333333334 959.2916666666666zM542.2083333333334 125.125C334.8970625 125.125 166.8333333333334 293.1887291666666 166.8333333333334 500.5S334.8970625 875.875 542.2083333333334 875.875S917.5833333333334 707.8112708333333 917.5833333333334 500.5S749.5196041666668 125.125 542.2083333333334 125.125zM417.0833333333334 210.9190416666666V790.0913854166666L822.5091875 500.5L417.0833333333334 210.9190416666666zM500.5 627.9919479166666V372.997625L678.9908125 500.5L500.5 627.9919479166666z" />
    <glyph glyph-name="circle-plus"
      unicode="&#xEA23;"
      horiz-adv-x="1001" d="M709.0416666666667 542.2083333333333H542.2083333333334V709.0416666666666C542.2083333333334 732.07509375 523.5334270833334 750.75 500.5 750.75S458.7916666666667 732.07509375 458.7916666666667 709.0416666666666V542.2083333333333H291.9583333333334C268.92490625 542.2083333333333 250.25 523.5334270833333 250.25 500.5S268.92490625 458.7916666666666 291.9583333333334 458.7916666666666H458.7916666666667V291.9583333333333C458.7916666666667 268.92490625 477.4665729166667 250.25 500.5 250.25S542.2083333333334 268.92490625 542.2083333333334 291.9583333333333V458.7916666666666H709.0416666666667C732.0750937500001 458.7916666666666 750.75 477.4665729166666 750.75 500.5S732.0750937500001 542.2083333333333 709.0416666666667 542.2083333333333zM500.5 41.7083333333333C247.5181041666667 41.7083333333333 41.7083333333333 247.5181041666666 41.7083333333333 500.5S247.5181041666667 959.2916666666666 500.5 959.2916666666666S959.2916666666669 753.4818958333333 959.2916666666669 500.5S753.4818958333334 41.7083333333333 500.5 41.7083333333333zM500.5 875.875C293.5119687500001 875.875 125.125 707.48803125 125.125 500.5S293.5119687500001 125.125 500.5 125.125S875.875 293.51196875 875.875 500.5S707.4880312500001 875.875 500.5 875.875z" />
    <glyph glyph-name="circle-question-reverse"
      unicode="&#xEA24;"
      horiz-adv-x="1001" d="M500.5 959.2916666666666C247.121875 959.2916666666666 41.7083333333333 753.8885520833333 41.7083333333333 500.5S247.121875 41.7083333333333 500.5 41.7083333333333S959.2916666666669 247.1114479166667 959.2916666666669 500.5S753.8781250000001 959.2916666666666 500.5 959.2916666666666zM518.7473958333334 185.9461770833333C494.27503125 185.9461770833333 474.4322916666667 205.7889166666666 474.4322916666667 230.2612812499999S494.27503125 274.5763854166667 518.7473958333334 274.5763854166667S563.0625 254.7336458333334 563.0625 230.2612812499999S543.2197604166668 185.9461770833333 518.7473958333334 185.9461770833333zM630.1920625 547.2863229166667C616.3448958333333 531.8229583333334 602.9669479166668 519.9360833333333 592.216625 510.3744479166667C570.2676145833334 490.8758020833334 564.9498020833333 485.0470624999999 563.0416458333333 472.5866979166666C560.6225625 456.8522291666667 557.9740833333334 394.2271666666667 556.8688125 358.4414166666667C556.1701979166667 335.8563541666666 537.6412708333334 318.0260416666667 515.2021875 318.0260416666667C514.76425 318.0260416666667 514.3263125 318.0364687500001 513.888375 318.0468958333332C490.865375 318.7559374999999 472.7848125 338.0043333333333 473.4938541666667 361.0273333333332C474.00478125 377.3144375 476.7158229166666 459.8865104166666 480.5842708333333 485.20346875C487.2471770833333 528.6844062499999 512.4390104166666 551.0713541666667 536.81753125 572.7284062499999C546.9318020833333 581.7165520833332 557.3797395833334 591.0070833333332 568.03621875 602.9148124999999C578.8178229166666 614.9789479166666 585.8248229166667 643.2259166666665 578.3173229166666 667.8338333333332C571.0183645833333 691.7744166666666 551.9055208333333 707.8321249999999 521.521 715.5481666666666C497.8202395833333 721.5645937499999 478.8950833333333 719.8545520833333 463.6402604166666 710.3137708333333C438.1773229166666 694.4020416666666 425.8525104166666 658.3347604166665 423.2457395833332 645.7805520833333C418.5952604166666 623.3206145833333 396.6671041666666 608.7122708333333 374.1654583333332 613.2167708333333C351.6742395833333 617.7316979166666 337.0346145833332 639.42003125 341.4035624999999 661.9321041666666C342.9884791666666 670.0548020833332 358.5769687499998 742.4708958333333 418.6578229166665 780.5610312499999C453.4008645833332 802.58303125 496.0789166666665 808.0468229166665 542.0414999999998 796.38934375C600.9440937499999 781.4264791666666 642.1623541666665 744.4207604166666 658.1053645833332 692.1706458333333C673.3393333333333 642.2457708333334 661.8591145833334 582.67584375 630.1920625 547.2863229166667z" />
    <glyph glyph-name="circle-question"
      unicode="&#xEA25;"
      horiz-adv-x="1001" d="M500.5 959.2916666666666C247.121875 959.2916666666666 41.7083333333333 753.8885520833333 41.7083333333333 500.5S247.121875 41.7083333333333 500.5 41.7083333333333S959.2916666666669 247.1114479166667 959.2916666666669 500.5S753.8781250000001 959.2916666666666 500.5 959.2916666666666zM500.5 125.125C293.1887291666667 125.125 125.125 293.1887291666666 125.125 500.5S293.1887291666667 875.875 500.5 875.875S875.875 707.8112708333333 875.875 500.5S707.8112708333334 125.125 500.5 125.125zM474.4322916666667 230.2612812499999A44.315104166666664 44.315104166666664 0 0 1 563.0625 230.2612812499999A44.315104166666664 44.315104166666664 0 0 1 474.4322916666667 230.2612812499999M542.0415 796.38934375C496.0789166666667 808.0468229166667 453.4008645833334 802.58303125 418.6578229166667 780.5610312499999C358.5769687500001 742.4708958333333 342.9884791666668 670.0548020833332 341.4035625000001 661.9321041666667C337.0346145833335 639.42003125 351.6742395833334 617.7316979166667 374.1654583333335 613.2167708333334C396.6671041666668 608.7122708333334 418.5952604166668 623.3206145833333 423.2457395833335 645.7805520833333C425.8525104166668 658.3347604166667 438.1773229166668 694.4020416666667 463.6402604166668 710.3137708333334C478.8950833333335 719.8545520833334 497.8202395833334 721.56459375 521.5210000000002 715.5481666666667C551.9055208333335 707.8321249999999 571.0183645833336 691.7744166666666 578.3173229166669 667.8338333333334C585.8248229166668 643.2259166666665 578.8178229166668 614.9789479166666 568.0362187500002 602.9148124999999C557.3797395833336 591.0070833333332 546.9318020833335 581.7165520833332 536.8175312500002 572.7284062499999C512.4390104166669 551.0713541666667 487.2471770833336 528.6844062499999 480.5842708333336 485.20346875C476.7158229166669 459.8865104166666 474.0047812500002 377.3144375 473.4938541666669 361.0273333333332C472.7848125000002 338.0043333333333 490.8653750000002 318.7559374999999 513.8883750000002 318.0468958333332C514.3263125000003 318.0364687499998 514.7642500000003 318.0260416666667 515.2021875000003 318.0260416666667C537.6412708333336 318.0260416666667 556.1701979166669 335.8563541666666 556.8688125000002 358.4414166666666C557.9740833333336 394.2271666666667 560.6225625000002 456.8522291666667 563.0416458333335 472.5866979166666C564.9498020833336 485.0470624999999 570.2676145833335 490.8758020833332 592.2166250000002 510.3744479166666C602.9669479166669 519.9360833333333 616.3448958333336 531.8229583333333 630.1920625000002 547.2863229166666C661.8591145833336 582.6758437499999 673.3393333333336 642.2457708333333 658.1053645833337 692.1706458333333C642.1623541666667 744.4207604166667 600.9440937500001 781.4264791666667 542.0415 796.38934375z" />
    <glyph glyph-name="circle-yes"
      unicode="&#xEA26;"
      horiz-adv-x="1001" d="M500.5 959.2916666666666C247.121875 959.2916666666666 41.7083333333333 753.8885520833333 41.7083333333333 500.5S247.121875 41.7083333333333 500.5 41.7083333333333S959.2916666666669 247.1114479166667 959.2916666666669 500.5S753.8781250000001 959.2916666666666 500.5 959.2916666666666zM500.5 125.125C293.1887291666667 125.125 125.125 293.1887291666666 125.125 500.5S293.1887291666667 875.875 500.5 875.875S875.875 707.8112708333333 875.875 500.5S707.8112708333334 125.125 500.5 125.125zM679.5538750000001 655.12321875L454.8815104166667 430.4508541666666L316.9833333333334 533.8666666666667C298.54825 547.672125 272.42840625 543.94965625 258.5916666666667 525.5250000000001C244.77578125 507.10034375 248.5086770833334 480.94921875 266.9333333333334 467.1333333333333L433.7666666666667 342.0083333333334C434.15246875 341.716375 434.5799791666667 341.5286875000001 434.9762083333333 341.24715625C435.77909375 340.68409375 436.6028333333333 340.1940208333333 437.437 339.6935208333333C438.8342291666666 338.8593541666667 440.2418854166666 338.1086041666666 441.7016770833333 337.4516979166666C442.5671249999999 337.0658958333334 443.4117187499999 336.6905208333333 444.2980208333333 336.36728125C445.91421875 335.7625104166666 447.5512708333333 335.3037187500001 449.2091770833333 334.9074895833333C449.9599270833333 334.7302291666666 450.6898229166666 334.5008333333333 451.451 334.36528125C453.8700833333334 333.9377708333333 456.3100208333333 333.6666666666667 458.7603854166667 333.6666666666667C458.7603854166667 333.6666666666667 458.7708125 333.6666666666667 458.7708125 333.6666666666667C458.7812395833333 333.6666666666667 458.7812395833333 333.6666666666667 458.7916666666667 333.6666666666667C461.7321041666667 333.6666666666667 464.6725416666667 334.05246875 467.5608437500001 334.6676666666666C468.4367187500001 334.8553541666667 469.2604583333334 335.1785937499999 470.1259062500001 335.42884375C472.1070520833334 335.99190625 474.0569166666668 336.6383854166666 475.9442187500001 337.4934062499999C476.9660729166667 337.9521979166666 477.9149375000001 338.5048333333333 478.9055104166667 339.0470416666666C480.5321354166667 339.9541979166667 482.1066250000001 340.9447708333334 483.6289791666667 342.0813229166665C484.6195520833334 342.8216458333333 485.5684166666667 343.5932499999999 486.5068541666668 344.4274166666666C487.0803437500001 344.93834375 487.7268229166668 345.3241458333332 488.2794583333335 345.8767812499999L738.5294583333334 596.12678125C754.8165625 612.4138854166666 754.8165625 638.8256875 738.5294583333334 655.1127916666667C722.2632083333334 671.3998958333334 695.8201250000001 671.3998958333334 679.5538750000001 655.12321875z" />
    <glyph glyph-name="clock"
      unicode="&#xEA27;"
      horiz-adv-x="1001" d="M500.5 959.2916666666666C247.121875 959.2916666666666 41.7083333333333 753.878125 41.7083333333333 500.5C41.7083333333333 247.121875 247.121875 41.7083333333333 500.5 41.7083333333333S959.2916666666669 247.121875 959.2916666666669 500.5C959.2916666666669 753.878125 753.8781250000001 959.2916666666666 500.5 959.2916666666666zM500.5 125.125C293.0010416666667 125.125 125.125 293.0010416666666 125.125 500.5C125.125 707.9989583333333 293.0010416666667 875.875 500.5 875.875S875.875 707.9989583333333 875.875 500.5C875.875 293.0010416666666 707.9989583333335 125.125 500.5 125.125zM654.8208333333333 404.5708333333334C671.5041666666666 387.8875 671.5041666666666 361.8197916666666 654.8208333333333 345.1364583333333C646.4791666666667 337.8375 636.0520833333334 333.6666666666667 625.625 333.6666666666667C615.1979166666667 333.6666666666667 604.7708333333334 337.8375 596.4291666666667 346.1791666666667L471.3041666666667 471.3041666666667C462.9625 478.603125 458.7916666666667 489.0302083333333 458.7916666666667 500.5V750.75C458.7916666666667 773.6895833333333 477.5604166666666 792.4583333333333 500.5 792.4583333333333S542.2083333333334 773.6895833333333 542.2083333333334 750.75V518.2260416666667L654.8208333333333 404.5708333333334z" />
    <glyph glyph-name="cross"
      unicode="&#xEA28;"
      horiz-adv-x="1001" d="M559.934375 500.5L822.6968750000001 763.2625C839.3802083333334 779.9458333333333 839.3802083333334 806.0135416666667 822.6968750000001 822.696875C806.0135416666668 839.3802083333333 779.9458333333334 839.3802083333333 763.2625 822.696875L500.5 559.934375L237.7375 821.6541666666667C221.0541666666667 838.3375 194.9864583333334 838.3375 178.303125 821.6541666666667C161.6197916666667 804.9708333333333 161.6197916666667 778.903125 178.303125 762.2197916666667L441.065625 500.5L179.3458333333333 237.7375C162.6625 221.0541666666667 162.6625 194.9864583333333 179.3458333333333 178.3031249999999C187.6875 171.0041666666667 198.1145833333334 166.8333333333333 208.5416666666667 166.8333333333333S229.3958333333334 171.0041666666667 237.7375 179.3458333333333L500.5 441.065625L763.2625 178.3031249999999C771.6041666666667 171.0041666666667 782.03125 166.8333333333333 792.4583333333334 166.8333333333333S813.3125 171.0041666666667 821.6541666666667 179.3458333333333C838.3375 196.0291666666666 838.3375 222.096875 821.6541666666667 238.7802083333334L559.934375 500.5z" />
    <glyph glyph-name="double-left"
      unicode="&#xEA29;"
      horiz-adv-x="1001" d="M500.5 166.8333333333333C490.0729166666667 166.8333333333333 479.6458333333334 171.0041666666667 471.3041666666667 179.3458333333333L179.3458333333334 471.3041666666667C162.6625000000001 487.9875000000001 162.6625000000001 514.0552083333333 179.3458333333334 530.7385416666667L471.3041666666667 822.6968750000001C487.9875000000001 839.3802083333334 514.0552083333334 839.3802083333334 530.7385416666667 822.6968750000001C547.4218750000001 806.0135416666667 547.4218750000001 779.9458333333333 530.7385416666667 763.2625L267.9760416666667 500.5L530.7385416666667 237.7375C547.421875 221.0541666666667 547.421875 194.9864583333333 530.7385416666667 178.3031249999999C521.3541666666667 171.0041666666667 510.9270833333334 166.8333333333333 500.5 166.8333333333333zM779.9458333333333 179.3458333333333C796.6291666666666 196.0291666666666 796.6291666666666 222.096875 779.9458333333333 238.7802083333334L518.2260416666667 500.5L780.9885416666667 763.2625C797.671875 779.9458333333333 797.671875 806.0135416666667 780.9885416666667 822.696875C764.3052083333334 839.3802083333333 738.2375000000002 839.3802083333333 721.5541666666668 822.696875L429.5958333333334 530.7385416666666C412.9125 514.0552083333332 412.9125 487.9875 429.5958333333334 471.3041666666666L721.5541666666668 179.3458333333332C729.8958333333334 171.0041666666667 740.3229166666667 166.8333333333333 750.75 166.8333333333333S771.6041666666667 171.0041666666667 779.9458333333333 179.3458333333333z" />
    <glyph glyph-name="double-right"
      unicode="&#xEA2A;"
      horiz-adv-x="1001" d="M429.5958333333334 179.3458333333333C412.9125 196.0291666666666 412.9125 222.096875 429.5958333333334 238.7802083333334L691.315625 500.5L429.5958333333334 763.2625C412.9125 779.9458333333333 412.9125 806.0135416666667 429.5958333333334 822.696875C446.2791666666668 839.3802083333333 472.3468750000001 839.3802083333333 489.0302083333334 822.696875L780.9885416666667 530.7385416666666C797.671875 514.0552083333332 797.671875 487.9875 780.9885416666667 471.3041666666666L489.0302083333334 179.3458333333332C479.6458333333334 171.0041666666667 469.21875 166.8333333333333 458.7916666666667 166.8333333333333S437.9375 171.0041666666667 429.5958333333334 179.3458333333333zM208.5416666666667 166.8333333333333C218.96875 166.8333333333333 229.3958333333334 171.0041666666667 237.7375 179.3458333333333L529.6958333333333 471.3041666666667C546.3791666666667 487.9875000000001 546.3791666666667 514.0552083333333 529.6958333333333 530.7385416666667L237.7375 822.6968750000001C221.0541666666667 839.3802083333334 194.9864583333333 839.3802083333334 178.303125 822.6968750000001C161.6197916666667 806.0135416666667 161.6197916666667 779.9458333333333 178.303125 763.2625L441.065625 500.5L179.3458333333333 237.7375C162.6625 221.0541666666667 162.6625 194.9864583333333 179.3458333333333 178.3031249999999C187.6875 171.0041666666667 198.1145833333334 166.8333333333333 208.5416666666667 166.8333333333333z" />
    <glyph glyph-name="down"
      unicode="&#xEA2B;"
      horiz-adv-x="1001" d="M179.053875 696.8106979166666C195.3409791666667 713.0978020833334 221.75278125 713.0978020833334 238.0294583333334 696.8106979166666L500.5 434.3505833333333L762.9705416666667 696.8106979166666C779.2576458333333 713.0978020833334 805.6694479166666 713.0978020833334 821.946125 696.8106979166666C838.2332291666668 680.5340208333332 838.2332291666668 654.1117916666667 821.946125 637.8351145833333L529.9877916666667 345.8767812499999C513.7111145833334 329.5896770833332 487.2888854166667 329.5896770833332 471.0122083333334 345.8767812499999L179.0538750000001 637.8351145833333C170.9103229166667 645.9786666666666 166.8333333333334 656.656 166.8333333333334 667.32290625C166.8333333333334 677.9898125 170.9103229166667 688.6671458333333 179.053875 696.8106979166666z" />
    <glyph glyph-name="edit"
      unicode="&#xEA2C;"
      horiz-adv-x="1001" d="M907.15625 698.6145833333333C884.1228229166667 698.6145833333333 865.4479166666667 679.9396770833333 865.4479166666667 656.90625V198.1145833333333C865.4479166666667 175.0707291666667 846.7834375 156.40625 823.7395833333334 156.40625H156.40625C133.3623958333333 156.40625 114.6979166666667 175.0707291666667 114.6979166666667 198.1145833333333V865.4479166666666C114.6979166666667 888.4917708333334 133.3623958333333 907.15625 156.40625 907.15625H615.1979166666667C638.2313437500001 907.15625 656.90625 925.83115625 656.90625 948.8645833333334S638.2313437500001 990.5729166666666 615.1979166666667 990.5729166666666H156.40625C87.30596875 990.5729166666666 31.28125 934.5481979166668 31.28125 865.4479166666666V198.1145833333333C31.28125 129.0143020833333 87.30596875 72.9895833333333 156.40625 72.9895833333333H823.7395833333334C892.8398645833333 72.9895833333333 948.8645833333334 129.0143020833333 948.8645833333334 198.1145833333333V656.90625C948.8645833333334 679.9396770833333 930.1896770833334 698.6145833333333 907.15625 698.6145833333333zM544.0017916666667 585.6996979166667C552.1349166666666 577.5665729166667 562.8226770833334 573.4895833333333 573.4895833333334 573.4895833333333S594.8442500000001 577.5665729166667 602.977375 585.6996979166667L936.6440416666668 919.3663645833332C952.9311458333334 935.65346875 952.9311458333334 962.0652708333334 936.6440416666668 978.352375C920.3673645833334 994.6394791666665 893.9347083333333 994.6394791666665 877.6684583333333 978.352375L544.0017916666667 644.6857083333334C527.7042604166667 628.3986041666667 527.7042604166667 601.9972291666667 544.0017916666667 585.6996979166667z" />
    <glyph glyph-name="left"
      unicode="&#xEA2D;"
      horiz-adv-x="1001" d="M675.9669583333334 842.7898645833334C692.2540625 826.5027604166667 692.2540625 800.0909583333333 675.9669583333334 783.81428125L413.50684375 521.3437395833333L675.9669583333334 258.8731979166667C692.2540625 242.5860937499999 692.2540625 216.1742916666666 675.9669583333334 199.8976145833332C659.6902812500001 183.6105104166666 633.2680520833334 183.6105104166666 616.9913750000001 199.8976145833332L325.0330416666668 491.8559479166665C308.7459375000001 508.1326249999999 308.7459375000001 534.5548541666665 325.0330416666668 550.8315312499999L616.9913750000001 842.7898645833333C625.1349270833334 850.9334166666665 635.8122604166667 855.01040625 646.4791666666667 855.01040625S667.8234062500001 850.9334166666666 675.9669583333334 842.7898645833334z" />
    <glyph glyph-name="link"
      unicode="&#xEA2E;"
      horiz-adv-x="1001" d="M583.9166666666667 250.25C591.215625 250.25 597.471875 250.25 603.728125 251.2927083333333C600.6 248.1645833333332 597.471875 243.9937499999999 593.3010416666667 240.8656249999999L469.21875 114.6979166666666C371.2041666666667 16.6833333333332 212.7125 16.6833333333332 115.740625 114.6979166666666C17.7260416666667 212.7125 17.7260416666667 371.2041666666667 114.6979166666667 469.21875L239.8229166666667 594.34375C242.9510416666667 597.471875 247.121875 601.6427083333333 250.25 604.7708333333333C327.4104166666667 672.546875 435.8520833333334 686.1020833333333 524.4822916666667 643.3510416666667C549.5072916666667 630.8385416666666 573.4895833333334 615.1979166666666 594.34375 594.34375C615.1979166666667 573.4895833333333 630.8385416666667 550.55 643.3510416666668 525.525C627.7104166666668 509.884375 606.85625 500.5 583.9166666666667 500.5C575.575 500.5 567.2333333333333 501.5427083333333 559.934375 503.628125C553.678125 515.0979166666666 545.3364583333334 525.525 535.9520833333335 534.909375C526.5677083333335 544.2937499999999 516.1406250000001 552.6354166666666 504.6708333333334 558.8916666666667C440.0229166666668 598.5145833333332 355.5635416666668 590.1729166666667 299.2572916666668 534.909375L261.7197916666667 497.3718749999999L174.1322916666667 409.784375C109.484375 345.1364583333333 109.484375 238.7802083333334 174.1322916666667 174.1322916666665C238.7802083333334 109.4843749999998 345.1364583333334 109.4843749999998 409.7843750000001 174.1322916666665L497.371875 261.7197916666666C525.525 254.4208333333334 553.678125 250.25 583.9166666666667 250.25zM886.3020833333334 886.3020833333334C788.2875 983.2739583333334 629.7958333333333 983.2739583333334 531.78125 886.3020833333334L406.65625 761.1770833333333C403.5281250000001 758.0489583333333 399.3572916666667 753.878125 396.2291666666667 750.75C402.4854166666667 750.75 409.784375 751.7927083333334 416.0406250000001 751.7927083333334C446.2791666666667 751.7927083333334 474.4322916666667 747.621875 502.5854166666667 740.3229166666666L590.1729166666668 827.9104166666666C654.8208333333334 892.5583333333333 761.1770833333334 892.5583333333333 825.825 827.9104166666666C890.4729166666667 763.2625 890.4729166666667 656.90625 825.825 592.2583333333332L738.2375000000001 504.6708333333333L700.7 467.1333333333333C645.4364583333335 411.8697916666667 559.934375 403.528125 495.2864583333334 443.1510416666667C483.8166666666667 449.4072916666667 474.4322916666667 457.7489583333332 464.0052083333334 467.1333333333333C454.6208333333334 476.5177083333333 446.2791666666667 486.9447916666666 440.0229166666668 498.4145833333333C433.7666666666667 499.4572916666666 425.425 500.5 417.0833333333334 500.5C394.14375 500.5 373.2895833333334 491.115625 357.6489583333334 476.5177083333333C370.1614583333334 451.4927083333333 385.8020833333334 427.5104166666667 406.65625 406.65625C427.5104166666667 385.8020833333333 450.45 370.1614583333333 475.475 357.6489583333332C564.1052083333334 314.8979166666667 672.546875 328.453125 749.7072916666667 396.2291666666667C753.8781250000002 399.3572916666666 757.0062500000001 402.4854166666667 760.1343750000001 406.65625L885.2593750000001 531.78125C983.2739583333334 629.7958333333333 983.2739583333334 788.2875 886.3020833333334 886.3020833333334z" />
    <glyph glyph-name="list"
      unicode="&#xEA2F;"
      horiz-adv-x="1001" d="M347.56596875 712.5138854166667H825.4704791666667C848.50390625 712.5138854166667 867.1788125 731.1887916666667 867.1788125 754.2222187499999S848.50390625 795.9305520833333 825.4704791666667 795.9305520833333H347.56596875C324.5325416666667 795.9305520833333 305.8576354166667 777.2556458333333 305.8576354166667 754.2222187499999S324.54296875 712.5138854166667 347.56596875 712.5138854166667zM825.4809062500001 632.1419270833333H347.56596875C324.5325416666667 632.1419270833333 305.8576354166667 613.4670208333333 305.8576354166667 590.43359375S324.5325416666667 548.7252604166666 347.56596875 548.7252604166666H825.4704791666667C848.50390625 548.7252604166666 867.1788125 567.4001666666666 867.1788125 590.43359375S848.5143333333334 632.1419270833333 825.4809062500001 632.1419270833333zM825.4809062500001 462.2638854166667H347.56596875C324.5325416666667 462.2638854166667 305.8576354166667 443.5889791666666 305.8576354166667 420.5555520833333C305.8576354166667 397.522125 324.5325416666667 378.8472187499999 347.56596875 378.8472187499999H825.4704791666667C848.50390625 378.8472187499999 867.1788125 397.5116979166667 867.1788125 420.5555520833333C867.1892395833333 443.5889791666666 848.5143333333334 462.2638854166667 825.4809062500001 462.2638854166667zM825.4809062500001 295.4305520833333H347.56596875C324.5325416666667 295.4305520833333 305.8576354166667 276.7556458333334 305.8576354166667 253.7222187499999S324.5325416666667 212.0138854166667 347.56596875 212.0138854166667H825.4704791666667C848.50390625 212.0138854166667 867.1788125 230.6887916666666 867.1788125 253.7222187499999S848.5143333333334 295.4305520833333 825.4809062500001 295.4305520833333zM174.6536458333334 754.66015625A41.27039583333333 41.27039583333333 0 0 1 257.1944375 754.66015625A41.27039583333333 41.27039583333333 0 0 1 174.6536458333334 754.66015625M174.6536458333334 590.87153125A41.27039583333333 41.27039583333333 0 0 1 257.1944375 590.87153125A41.27039583333333 41.27039583333333 0 0 1 174.6536458333334 590.87153125M174.6536458333334 420.9934895833333A41.27039583333333 41.27039583333333 0 0 1 257.1944375 420.9934895833333A41.27039583333333 41.27039583333333 0 0 1 174.6536458333334 420.9934895833333M174.6536458333334 254.16015625A41.27039583333333 41.27039583333333 0 0 1 257.1944375 254.16015625A41.27039583333333 41.27039583333333 0 0 1 174.6536458333334 254.16015625" />
    <glyph glyph-name="lock"
      unicode="&#xEA30;"
      horiz-adv-x="1001" d="M834.1666666666667 542.2083333333333H750.75V709.0416666666666C750.75 847.721875 639.1802083333333 959.2916666666666 500.5 959.2916666666666S250.25 847.721875 250.25 709.0416666666666V542.2083333333333H166.8333333333334C98.0145833333334 542.2083333333333 41.7083333333333 485.9020833333333 41.7083333333333 417.0833333333333V166.8333333333333C41.7083333333333 98.0145833333334 98.0145833333334 41.7083333333333 166.8333333333334 41.7083333333333H834.1666666666667C902.9854166666667 41.7083333333333 959.2916666666669 98.0145833333334 959.2916666666669 166.8333333333333V417.0833333333333C959.2916666666669 485.9020833333333 902.9854166666667 542.2083333333333 834.1666666666667 542.2083333333333zM333.6666666666667 709.0416666666666C333.6666666666667 800.8 408.7416666666668 875.875 500.5 875.875S667.3333333333334 800.8 667.3333333333334 709.0416666666666V542.2083333333333H333.6666666666667V709.0416666666666zM875.875 166.8333333333333C875.875 143.89375 857.10625 125.125 834.1666666666667 125.125H166.8333333333334C143.89375 125.125 125.125 143.89375 125.125 166.8333333333333V417.0833333333333C125.125 440.0229166666667 143.89375 458.7916666666666 166.8333333333334 458.7916666666666H834.1666666666667C857.10625 458.7916666666666 875.875 440.0229166666667 875.875 417.0833333333333V166.8333333333333z" />
    <glyph glyph-name="minus"
      unicode="&#xEA31;"
      horiz-adv-x="1001" d="M875.875 542.2083333333333H125.125C102.1854166666667 542.2083333333333 83.4166666666667 523.4395833333333 83.4166666666667 500.5S102.1854166666667 458.7916666666666 125.125 458.7916666666666H875.875C898.8145833333334 458.7916666666666 917.5833333333334 477.5604166666666 917.5833333333334 500.5S898.8145833333334 542.2083333333333 875.875 542.2083333333333z" />
    <glyph glyph-name="net"
      unicode="&#xEA32;"
      horiz-adv-x="1001" d="M518.1217708333334 958.98928125C512.2826041666667 959.1873958333334 506.4434375 959.2916666666666 500.5 959.2916666666666S488.7173958333333 959.1873958333334 482.8782291666667 958.98928125C237.6332291666667 949.69875 41.7083333333333 747.9451145833334 41.7083333333333 500.5C41.7083333333333 253.0653124999999 237.6332291666667 51.30125 482.8782291666667 42.0107187499999C488.7173958333333 41.8126041666667 494.5565625 41.7083333333333 500.5 41.7083333333333S512.2826041666667 41.8126041666667 518.1217708333334 42.0107187499999C763.3667708333334 51.30125 959.2916666666669 253.0653124999999 959.2916666666669 500.5C959.2916666666669 747.9451145833334 763.3667708333334 949.69875 518.1217708333334 958.98928125zM873.4663437500001 542.2083333333333H707.5714479166668C698.0932291666668 681.93125 642.1936354166669 793.3967708333333 595.595 863.7795833333333C743.7638541666666 824.9908333333333 856.3763541666667 697.9889583333334 873.4663437500001 542.2083333333333zM500.6042708333333 853.1439583333333C541.5827083333334 799.7572916666667 612.1740625 688.3960416666666 623.9566666666667 542.2083333333333H377.0433333333333C388.8259375 687.7704166666667 459.6258333333333 799.5487499999999 500.6042708333333 853.1439583333333zM405.4050000000001 863.7795833333333C358.7959375 793.3967708333333 302.9067708333334 681.93125 293.4285520833334 542.2083333333333H127.53365625C144.6236458333334 697.9889583333334 257.2361458333334 824.9908333333333 405.4050000000001 863.7795833333333zM127.53365625 458.7916666666666H293.4285520833334C302.9067708333334 319.16259375 358.6916666666667 207.7075 405.3007291666667 137.3246875C257.1318750000001 176.0091666666666 144.6236458333334 303.0110416666667 127.53365625 458.7916666666666zM500.3957291666667 147.8560416666667C459.4172916666667 201.2427083333332 388.8259375 312.6143854166666 377.0433333333333 458.7916666666666H623.9566666666667C612.1740625 313.2295833333334 541.4784375 201.4512499999999 500.3957291666667 147.8560416666667zM595.6992708333333 137.3246875C642.3083333333334 207.7075 698.0932291666668 319.1730208333334 707.5714479166668 458.7916666666666H873.4663437500001C856.3763541666667 303.0110416666667 743.8681250000001 176.0091666666666 595.6992708333333 137.3246875z" />
    <glyph glyph-name="play"
      unicode="&#xEA33;"
      horiz-adv-x="1001" d="M250.25 728.853125L630.8385416666667 500.5L250.25 272.1468749999999V728.853125M166.8333333333334 875.875V125.125L792.4583333333334 500.5L166.8333333333334 875.875L166.8333333333334 875.875z" />
    <glyph glyph-name="plus"
      unicode="&#xEA34;"
      horiz-adv-x="1001" d="M875.875 542.2083333333333H542.2083333333334V875.875C542.2083333333334 898.9084270833333 523.5334270833334 917.5833333333334 500.5 917.5833333333334S458.7916666666667 898.9084270833333 458.7916666666667 875.875V542.2083333333333H125.125C102.0915729166667 542.2083333333333 83.4166666666667 523.5334270833333 83.4166666666667 500.5C83.4166666666667 477.4665729166666 102.0915729166667 458.7916666666666 125.125 458.7916666666666H458.7916666666667V125.125C458.7916666666667 102.0915729166666 477.4665729166667 83.4166666666666 500.5 83.4166666666666S542.2083333333334 102.0915729166666 542.2083333333334 125.125V458.7916666666666H875.875C898.9084270833334 458.7916666666666 917.5833333333334 477.4665729166666 917.5833333333334 500.5C917.5833333333334 523.5334270833333 898.9084270833334 542.2083333333333 875.875 542.2083333333333z" />
    <glyph glyph-name="qr-code"
      unicode="&#xEA35;"
      horiz-adv-x="1001" d="M333.6666666666667 458.7916666666666H166.8333333333334C97.7017708333333 458.7916666666666 41.7083333333333 402.7982291666667 41.7083333333333 333.6666666666667V166.8333333333333C41.7083333333333 97.7017708333333 97.7017708333334 41.7083333333333 166.8333333333334 41.7083333333333H333.6666666666667C402.7982291666667 41.7083333333333 458.7916666666667 97.7017708333333 458.7916666666667 166.8333333333333V333.6666666666667C458.7916666666667 402.7982291666667 402.7982291666667 458.7916666666666 333.6666666666667 458.7916666666666zM375.375 166.8333333333333C375.375 143.7894791666667 356.7105208333334 125.125 333.6666666666667 125.125H166.8333333333334C143.7894791666667 125.125 125.125 143.7894791666667 125.125 166.8333333333333V333.6666666666667C125.125 356.7105208333334 143.7894791666667 375.375 166.8333333333334 375.375H333.6666666666667C356.7105208333334 375.375 375.375 356.7105208333334 375.375 333.6666666666667V166.8333333333333zM834.1666666666667 458.7916666666666H667.3333333333334C598.2017708333333 458.7916666666666 542.2083333333334 402.7982291666667 542.2083333333334 333.6666666666667V166.8333333333333C542.2083333333334 97.7017708333333 598.2017708333333 41.7083333333333 667.3333333333334 41.7083333333333H834.1666666666667C903.2982291666668 41.7083333333333 959.2916666666669 97.7017708333333 959.2916666666669 166.8333333333333V333.6666666666667C959.2916666666669 402.7982291666667 903.2982291666668 458.7916666666666 834.1666666666667 458.7916666666666zM333.6666666666667 959.2916666666666H166.8333333333334C97.7017708333333 959.2916666666666 41.7083333333333 903.2982291666668 41.7083333333333 834.1666666666666V667.3333333333333C41.7083333333333 598.2017708333333 97.7017708333334 542.2083333333333 166.8333333333334 542.2083333333333H333.6666666666667C402.7982291666667 542.2083333333333 458.7916666666667 598.2017708333333 458.7916666666667 667.3333333333333V834.1666666666666C458.7916666666667 903.2982291666668 402.7982291666667 959.2916666666666 333.6666666666667 959.2916666666666zM375.375 667.3333333333333C375.375 644.2894791666666 356.7105208333334 625.625 333.6666666666667 625.625H166.8333333333334C143.7894791666667 625.625 125.125 644.2894791666666 125.125 667.3333333333333V834.1666666666666C125.125 857.2105208333334 143.7894791666667 875.875 166.8333333333334 875.875H333.6666666666667C356.7105208333334 875.875 375.375 857.2105208333334 375.375 834.1666666666666V667.3333333333333zM834.1666666666667 959.2916666666666H667.3333333333334C598.2017708333333 959.2916666666666 542.2083333333334 903.2982291666666 542.2083333333334 834.1666666666666V667.3333333333333C542.2083333333334 598.2017708333333 598.2017708333333 542.2083333333333 667.3333333333334 542.2083333333333H834.1666666666667C903.2982291666668 542.2083333333333 959.2916666666669 598.2017708333333 959.2916666666669 667.3333333333333V834.1666666666666C959.2916666666669 903.2982291666668 903.2982291666668 959.2916666666666 834.1666666666667 959.2916666666666zM875.875 667.3333333333333C875.875 644.2894791666666 857.2105208333334 625.625 834.1666666666667 625.625H667.3333333333334C644.2894791666666 625.625 625.625 644.2894791666666 625.625 667.3333333333333V834.1666666666666C625.625 857.2105208333334 644.2894791666666 875.875 667.3333333333334 875.875H834.1666666666667C857.2105208333334 875.875 875.875 857.2105208333334 875.875 834.1666666666666V667.3333333333333zM309.55925 733.38890625C309.55925 712.74328125 292.82378125 696.0078125 272.17815625 696.0078125H234.8491979166667C214.2035729166667 696.0078125 197.4681041666666 712.74328125 197.4681041666666 733.38890625V770.7178645833333C197.4681041666666 791.3634895833334 214.2035729166667 808.0989583333333 234.8491979166667 808.0989583333333H272.17815625C292.82378125 808.0989583333333 309.55925 791.3634895833334 309.55925 770.7178645833333V733.38890625zM806.7955729166667 733.38890625C806.7955729166667 712.74328125 790.0601041666666 696.0078125 769.4144791666668 696.0078125H732.0855208333335C711.4398958333334 696.0078125 694.7044270833335 712.74328125 694.7044270833335 733.38890625V770.7178645833333C694.7044270833335 791.3634895833334 711.4398958333336 808.0989583333333 732.0855208333335 808.0989583333333H769.4144791666668C790.0601041666669 808.0989583333333 806.7955729166667 791.3634895833334 806.7955729166667 770.7178645833333V733.38890625zM306.2955729166667 231.5855208333333C306.2955729166667 210.9398958333332 289.5601041666667 194.2044270833333 268.9144791666667 194.2044270833333H231.5855208333334C210.9398958333334 194.2044270833333 194.2044270833334 210.9398958333334 194.2044270833334 231.5855208333333V268.9144791666665C194.2044270833334 289.5601041666667 210.9398958333334 306.2955729166665 231.5855208333334 306.2955729166665H268.9144791666667C289.5601041666667 306.2955729166665 306.2955729166667 289.5601041666664 306.2955729166667 268.9144791666665V231.5855208333333z" />
    <glyph glyph-name="right"
      unicode="&#xEA36;"
      horiz-adv-x="1001" d="M354.5208333333334 855.01040625C365.1877395833334 855.01040625 375.8650729166667 850.9334166666666 384.0086250000001 842.7898645833334L675.9669583333334 550.8315312499999C692.2540625 534.5548541666667 692.2540625 508.132625 675.9669583333334 491.8559479166667L384.0086250000001 199.8976145833332C367.7319479166668 183.6105104166666 341.3097187500001 183.6105104166666 325.0330416666668 199.8976145833332C308.7459375000001 216.1742916666666 308.7459375000001 242.5860937499998 325.0330416666668 258.8731979166667L587.4931562500001 521.3437395833332L325.0330416666667 783.81428125C308.7459375000001 800.0909583333333 308.7459375000001 826.5027604166667 325.0330416666667 842.7898645833333C333.17659375 850.9334166666666 343.8539270833333 855.01040625 354.5208333333334 855.01040625z" />
    <glyph glyph-name="square-add"
      unicode="&#xEA37;"
      horiz-adv-x="1001" d="M834.1666666666667 959.2916666666666H166.8333333333334C98.0145833333334 959.2916666666666 41.7083333333333 902.9854166666667 41.7083333333333 834.1666666666666V166.8333333333333C41.7083333333333 98.0145833333334 98.0145833333334 41.7083333333333 166.8333333333334 41.7083333333333H834.1666666666667C902.9854166666667 41.7083333333333 959.2916666666669 98.0145833333334 959.2916666666669 166.8333333333333V834.1666666666666C959.2916666666669 902.9854166666667 902.9854166666667 959.2916666666666 834.1666666666667 959.2916666666666zM875.875 166.8333333333333C875.875 143.89375 857.10625 125.125 834.1666666666667 125.125H166.8333333333334C143.89375 125.125 125.125 143.89375 125.125 166.8333333333333V834.1666666666666C125.125 857.10625 143.89375 875.875 166.8333333333334 875.875H834.1666666666667C857.10625 875.875 875.875 857.10625 875.875 834.1666666666666V166.8333333333333zM667.3333333333334 542.2083333333333H542.2083333333334V667.3333333333333C542.2083333333334 690.2729166666666 523.4395833333334 709.0416666666666 500.5 709.0416666666666S458.7916666666667 690.2729166666666 458.7916666666667 667.3333333333333V542.2083333333333H333.6666666666667C310.7270833333334 542.2083333333333 291.9583333333334 523.4395833333333 291.9583333333334 500.5S310.7270833333334 458.7916666666666 333.6666666666667 458.7916666666666H458.7916666666667V333.6666666666667C458.7916666666667 310.7270833333332 477.5604166666666 291.9583333333333 500.5 291.9583333333333S542.2083333333334 310.7270833333332 542.2083333333334 333.6666666666667V458.7916666666666H667.3333333333334C690.2729166666668 458.7916666666666 709.0416666666667 477.5604166666666 709.0416666666667 500.5S690.2729166666668 542.2083333333333 667.3333333333334 542.2083333333333z" />
    <glyph glyph-name="square-check"
      unicode="&#xEA38;"
      horiz-adv-x="1001" d="M834.1666666666667 959.2916666666666H166.8333333333334C98.0145833333334 959.2916666666666 41.7083333333333 902.9854166666667 41.7083333333333 834.1666666666666V166.8333333333333C41.7083333333333 98.0145833333334 98.0145833333334 41.7083333333333 166.8333333333334 41.7083333333333H834.1666666666667C902.9854166666667 41.7083333333333 959.2916666666669 98.0145833333334 959.2916666666669 166.8333333333333V834.1666666666666C959.2916666666669 902.9854166666667 902.9854166666667 959.2916666666666 834.1666666666667 959.2916666666666zM875.875 166.8333333333333C875.875 143.89375 857.10625 125.125 834.1666666666667 125.125H166.8333333333334C143.89375 125.125 125.125 143.89375 125.125 166.8333333333333V834.1666666666666C125.125 857.10625 143.89375 875.875 166.8333333333334 875.875H834.1666666666667C857.10625 875.875 875.875 857.10625 875.875 834.1666666666666V166.8333333333333zM638.1375 632.9239583333333L460.8770833333334 455.6635416666667L372.2468750000001 544.29375C355.5635416666667 560.9770833333333 329.4958333333334 560.9770833333333 312.8125000000001 544.29375C296.1291666666667 527.6104166666667 296.1291666666667 501.5427083333333 312.8125000000001 484.859375L430.6385416666668 367.0333333333333C447.3218750000001 350.35 473.3895833333334 350.35 490.0729166666667 367.0333333333333L696.5291666666668 573.4895833333333C713.2125000000001 590.1729166666667 713.2125000000001 616.2406249999999 696.5291666666668 632.9239583333333C680.8885416666667 649.6072916666667 653.778125 649.6072916666667 638.1375 632.9239583333333z" />
    <glyph glyph-name="square-cross"
      unicode="&#xEA39;"
      horiz-adv-x="1001" d="M834.1666666666667 959.2916666666666H166.8333333333334C98.0145833333334 959.2916666666666 41.7083333333333 902.9854166666667 41.7083333333333 834.1666666666666V166.8333333333333C41.7083333333333 98.0145833333334 98.0145833333334 41.7083333333333 166.8333333333334 41.7083333333333H834.1666666666667C902.9854166666667 41.7083333333333 959.2916666666669 98.0145833333334 959.2916666666669 166.8333333333333V834.1666666666666C959.2916666666669 902.9854166666667 902.9854166666667 959.2916666666666 834.1666666666667 959.2916666666666zM875.875 166.8333333333333C875.875 143.89375 857.10625 125.125 834.1666666666667 125.125H166.8333333333334C143.89375 125.125 125.125 143.89375 125.125 166.8333333333333V834.1666666666666C125.125 857.10625 143.89375 875.875 166.8333333333334 875.875H834.1666666666667C857.10625 875.875 875.875 857.10625 875.875 834.1666666666666V166.8333333333333zM647.521875 647.521875C630.8385416666667 664.2052083333333 604.7708333333334 664.2052083333333 588.0875 647.521875L500.5 559.934375L411.8697916666667 648.5645833333333C395.1864583333334 665.2479166666667 369.1187500000001 665.2479166666667 352.4354166666667 648.5645833333333C335.7520833333333 631.8812499999999 335.7520833333333 605.8135416666667 352.4354166666667 589.1302083333333L441.065625 500.5L352.4354166666667 411.8697916666667C335.7520833333333 395.1864583333333 335.7520833333333 369.11875 352.4354166666667 352.4354166666666C369.1187500000001 335.7520833333333 395.1864583333334 335.7520833333333 411.8697916666667 352.4354166666666L500.5 441.065625L589.1302083333334 352.4354166666666C605.8135416666668 335.7520833333333 631.88125 335.7520833333333 648.5645833333334 352.4354166666666C665.2479166666667 369.11875 665.2479166666667 395.1864583333333 648.5645833333334 411.8697916666667L559.934375 500.5L648.5645833333334 589.1302083333333C664.2052083333334 604.7708333333333 664.2052083333334 631.8812499999999 647.521875 647.521875z" />
    <glyph glyph-name="square-minus"
      unicode="&#xEA3A;"
      horiz-adv-x="1001" d="M834.1666666666667 959.2916666666666H166.8333333333334C98.0145833333334 959.2916666666666 41.7083333333333 902.9854166666667 41.7083333333333 834.1666666666666V166.8333333333333C41.7083333333333 98.0145833333334 98.0145833333334 41.7083333333333 166.8333333333334 41.7083333333333H834.1666666666667C902.9854166666667 41.7083333333333 959.2916666666669 98.0145833333334 959.2916666666669 166.8333333333333V834.1666666666666C959.2916666666669 902.9854166666667 902.9854166666667 959.2916666666666 834.1666666666667 959.2916666666666zM875.875 166.8333333333333C875.875 143.89375 857.10625 125.125 834.1666666666667 125.125H166.8333333333334C143.89375 125.125 125.125 143.89375 125.125 166.8333333333333V834.1666666666666C125.125 857.10625 143.89375 875.875 166.8333333333334 875.875H834.1666666666667C857.10625 875.875 875.875 857.10625 875.875 834.1666666666666V166.8333333333333zM667.3333333333334 542.2083333333333H333.6666666666667C310.7270833333334 542.2083333333333 291.9583333333334 523.4395833333333 291.9583333333334 500.5S310.7270833333334 458.7916666666666 333.6666666666667 458.7916666666666H667.3333333333334C690.2729166666668 458.7916666666666 709.0416666666667 477.5604166666666 709.0416666666667 500.5S690.2729166666668 542.2083333333333 667.3333333333334 542.2083333333333z" />
    <glyph glyph-name="square"
      unicode="&#xEA3B;"
      horiz-adv-x="1001" d="M750.75 875.875H250.25C181.43125 875.875 125.125 819.56875 125.125 750.75V250.25C125.125 181.43125 181.43125 125.125 250.25 125.125H750.75C819.56875 125.125 875.875 181.43125 875.875 250.25V750.75C875.875 819.56875 819.56875 875.875 750.75 875.875zM792.4583333333334 250.25C792.4583333333334 227.3104166666666 773.6895833333334 208.5416666666666 750.75 208.5416666666666H250.25C227.3104166666667 208.5416666666666 208.5416666666667 227.3104166666666 208.5416666666667 250.25V750.75C208.5416666666667 773.6895833333333 227.3104166666667 792.4583333333333 250.25 792.4583333333333H750.75C773.6895833333334 792.4583333333333 792.4583333333334 773.6895833333333 792.4583333333334 750.75V250.25z" />
    <glyph glyph-name="star"
      unicode="&#xEA3C;"
      horiz-adv-x="1001" d="M500.5 711.1270833333333L552.6354166666667 545.3364583333332H714.2552083333334L583.9166666666667 458.7916666666666L635.009375 304.4708333333333L500.5 403.5281250000001L364.9479166666667 305.5135416666666L417.0833333333334 458.7916666666666L286.7447916666667 545.3364583333332H448.3645833333334L500.5 711.1270833333333M500.5 975.975L387.8875000000001 628.753125H22.9395833333334L318.0260416666668 423.3395833333333L205.4135416666667 85.5020833333333L500.5 299.2572916666667L795.5864583333333 83.4166666666666L682.9739583333334 424.3822916666667L978.0604166666666 628.753125H613.1125L500.5 975.975L500.5 975.975z" />
    <glyph glyph-name="tag"
      unicode="&#xEA3D;"
      horiz-adv-x="1001" d="M478.603125 875.875L863.3625000000001 491.115625C873.7895833333333 480.6885416666667 875.875 468.1760416666666 875.875 461.9197916666667C875.875 455.6635416666667 873.7895833333333 443.1510416666668 863.3625000000001 432.7239583333334L568.2760416666667 137.6374999999999C557.8489583333334 127.2104166666667 545.3364583333333 125.125 539.0802083333334 125.125C532.8239583333334 125.125 520.3114583333335 127.2104166666667 509.8843750000001 137.6374999999999L125.125 522.3968749999999V875.875H478.603125M514.0552083333333 959.2916666666666H41.7083333333333V486.9447916666667L450.45 78.203125C474.4322916666667 54.2208333333333 506.75625 41.7083333333333 539.0802083333334 41.7083333333333C571.4041666666667 41.7083333333333 602.6854166666667 54.2208333333333 627.7104166666668 78.203125L922.796875 373.2895833333332C971.8041666666668 422.296875 971.8041666666668 501.5427083333332 922.796875 550.55L514.0552083333333 959.2916666666666L514.0552083333333 959.2916666666666zM354.5208333333334 750.75C297.171875 750.75 250.25 703.828125 250.25 646.4791666666666S297.171875 542.2083333333333 354.5208333333334 542.2083333333333C411.8697916666667 542.2083333333333 458.7916666666667 589.1302083333333 458.7916666666667 646.4791666666666S411.8697916666667 750.75 354.5208333333334 750.75zM354.5208333333334 625.625C343.0510416666667 625.625 333.6666666666667 635.009375 333.6666666666667 646.4791666666666S343.0510416666667 667.3333333333333 354.5208333333334 667.3333333333333S375.375 657.9489583333334 375.375 646.4791666666666S365.990625 625.625 354.5208333333334 625.625z" />
    <glyph glyph-name="unlock"
      unicode="&#xEA3E;"
      horiz-adv-x="1001" d="M834.1666666666667 542.2083333333333H333.6666666666667V709.0416666666666C333.6666666666667 801.175375 408.3662916666667 875.875 500.5 875.875S667.3333333333334 801.175375 667.3333333333334 709.0416666666666V667.3333333333333C667.3333333333334 644.2999062499999 686.0082395833333 625.625 709.0416666666667 625.625S750.75 644.2999062499999 750.75 667.3333333333333V709.0416666666666C750.75 847.25265625 638.7109895833333 959.2916666666666 500.5 959.2916666666666S250.25 847.25265625 250.25 709.0416666666666V542.2083333333333H166.8333333333334C97.7017708333333 542.2083333333333 41.7083333333333 486.2148958333333 41.7083333333333 417.0833333333333V166.8333333333333C41.7083333333333 97.7017708333333 97.7017708333334 41.7083333333333 166.8333333333334 41.7083333333333H834.1666666666667C903.2982291666668 41.7083333333333 959.2916666666669 97.7017708333333 959.2916666666669 166.8333333333333V417.0833333333333C959.2916666666669 486.2148958333333 903.2982291666668 542.2083333333333 834.1666666666667 542.2083333333333zM875.875 166.8333333333333C875.875 143.7894791666667 857.2105208333334 125.125 834.1666666666667 125.125H166.8333333333334C143.7894791666667 125.125 125.125 143.7894791666667 125.125 166.8333333333333V417.0833333333333C125.125 440.1271875 143.7894791666667 458.7916666666666 166.8333333333334 458.7916666666666H834.1666666666667C857.2105208333334 458.7916666666666 875.875 440.1271875 875.875 417.0833333333333V166.8333333333333z" />
    <glyph glyph-name="up"
      unicode="&#xEA3F;"
      horiz-adv-x="1001" d="M166.8333333333334 375.3645729166667C166.8333333333334 386.0314791666667 170.9103229166667 396.7088124999999 179.053875 404.8523645833334L471.0122083333333 696.8106979166666C487.2888854166667 713.0978020833334 513.7111145833334 713.0978020833334 529.9877916666667 696.8106979166666L821.946125 404.8523645833334C838.2332291666668 388.5756875000001 838.2332291666668 362.1534583333334 821.946125 345.87678125C805.6694479166666 329.5896770833334 779.2576458333335 329.5896770833334 762.9705416666667 345.87678125L500.5 608.3368958333333L238.0294583333334 345.8767812499999C221.75278125 329.5896770833332 195.3409791666667 329.5896770833332 179.053875 345.8767812499999C170.9103229166667 354.0203333333333 166.8333333333334 364.6976666666666 166.8333333333334 375.3645729166667z" />
    </font>
</defs>
</svg>
